<?xml version="1.0" encoding="UTF-8"?>
<svg version="1.1" xmlns="http://www.w3.org/2000/svg" width="1500" height="1500">
<path d="M0 0 C2.15161662 -0.00322672 4.30323304 -0.00659175 6.45484924 -0.01008606 C10.94182848 -0.01603003 15.4287886 -0.01793096 19.91577148 -0.01733398 C24.45845536 -0.01725289 29.00103804 -0.02417608 33.54370117 -0.0378418 C82.33649705 -0.18231599 82.33649705 -0.18231599 104.31640625 2.16796875 C105.11646088 2.24838409 105.9165155 2.32879944 106.74081421 2.41165161 C111.4835144 2.88895241 116.2123576 3.44329708 120.94140625 4.04296875 C121.61800293 4.1268988 122.29459961 4.21082886 122.99169922 4.29730225 C138.50703921 6.22230363 154.09226726 8.23324329 169.34179688 11.73046875 C171.90208875 12.29773421 174.47419194 12.71214143 177.06640625 13.10546875 C186.42720982 14.62600537 195.60548082 16.95358885 204.79296875 19.28125 C207.63957222 19.99763469 210.48852196 20.70122421 213.33984375 21.3984375 C214.2311499 21.61773926 215.12245605 21.83704102 216.04077148 22.06298828 C217.81826099 22.50028301 219.59639903 22.93495196 221.37524414 23.36669922 C225.50733449 24.38771578 229.38045049 25.52740043 233.31640625 27.16796875 C234.80831266 27.53583608 236.30884393 27.87070294 237.81640625 28.16796875 C240.20052021 28.63807573 242.32348309 29.17081169 244.58203125 30.078125 C248.17631836 31.51070515 251.84925591 32.54126812 255.56640625 33.60546875 C265.29823247 36.4326663 274.80287482 39.67616012 284.31640625 43.16796875 C286.14951205 43.8352608 287.98284424 44.50193127 289.81640625 45.16796875 C298.06640625 48.16796875 298.06640625 48.16796875 306.31640625 51.16796875 C306.31640625 51.82796875 306.31640625 52.48796875 306.31640625 53.16796875 C307.57453125 53.39484375 308.83265625 53.62171875 310.12890625 53.85546875 C315.91971941 55.1372657 320.99485695 57.61086065 326.31640625 60.16796875 C331.25054821 62.43751914 336.11531948 64.56763436 341.31640625 66.16796875 C341.31640625 66.82796875 341.31640625 67.48796875 341.31640625 68.16796875 C342.26515625 68.31234375 343.21390625 68.45671875 344.19140625 68.60546875 C347.31640625 69.16796875 347.31640625 69.16796875 349.31640625 70.16796875 C349.31640625 70.82796875 349.31640625 71.48796875 349.31640625 72.16796875 C350.10917969 72.23113281 350.90195313 72.29429688 351.71875 72.359375 C356.59560626 73.45547625 360.52457796 75.7043581 364.87890625 78.10546875 C371.91998918 82.01406752 371.91998918 82.01406752 379.31640625 85.16796875 C379.31640625 85.82796875 379.31640625 86.48796875 379.31640625 87.16796875 C380.16203125 87.25046875 381.00765625 87.33296875 381.87890625 87.41796875 C386.05418093 88.32893777 388.68514742 89.93334793 392.31640625 92.16796875 C392.97640625 92.49796875 393.63640625 92.82796875 394.31640625 93.16796875 C394.31640625 93.82796875 394.31640625 94.48796875 394.31640625 95.16796875 C395.03828125 95.27109375 395.76015625 95.37421875 396.50390625 95.48046875 C399.63038277 96.24471856 401.61330301 97.43025953 404.31640625 99.16796875 C408.76329578 101.76524514 408.76329578 101.76524514 413.31640625 104.16796875 C413.31640625 104.82796875 413.31640625 105.48796875 413.31640625 106.16796875 C414.01765625 106.25046875 414.71890625 106.33296875 415.44140625 106.41796875 C419.00675145 107.3480588 421.40656197 108.93483244 424.31640625 111.16796875 C424.31640625 111.82796875 424.31640625 112.48796875 424.31640625 113.16796875 C425.10015625 113.31234375 425.88390625 113.45671875 426.69140625 113.60546875 C429.31640625 114.16796875 429.31640625 114.16796875 431.31640625 115.16796875 C431.31640625 115.82796875 431.31640625 116.48796875 431.31640625 117.16796875 C433.29640625 117.82796875 435.27640625 118.48796875 437.31640625 119.16796875 C437.31640625 119.82796875 437.31640625 120.48796875 437.31640625 121.16796875 C438.20328125 121.43609375 439.09015625 121.70421875 440.00390625 121.98046875 C447.58077407 124.69670438 447.58077407 124.69670438 449.31640625 128.16796875 C451.33310452 129.30147409 451.33310452 129.30147409 453.31640625 130.16796875 C453.31640625 130.82796875 453.31640625 131.48796875 453.31640625 132.16796875 C453.88875 132.28269531 454.46109375 132.39742187 455.05078125 132.515625 C457.53112281 133.22979231 459.38009322 134.24104747 461.56640625 135.60546875 C462.2728125 136.03730469 462.97921875 136.46914062 463.70703125 136.9140625 C464.238125 137.32785156 464.76921875 137.74164063 465.31640625 138.16796875 C465.31640625 138.82796875 465.31640625 139.48796875 465.31640625 140.16796875 C466.63640625 140.49796875 467.95640625 140.82796875 469.31640625 141.16796875 C469.31640625 141.82796875 469.31640625 142.48796875 469.31640625 143.16796875 C470.24453125 143.43609375 471.17265625 143.70421875 472.12890625 143.98046875 C475.14086389 145.10257062 476.27988121 145.82596495 478.31640625 148.16796875 C478.97640625 148.49796875 479.63640625 148.82796875 480.31640625 149.16796875 C480.31640625 149.82796875 480.31640625 150.48796875 480.31640625 151.16796875 C481.05890625 151.43609375 481.80140625 151.70421875 482.56640625 151.98046875 C485.20702574 153.12073626 487.17193469 154.26177181 489.31640625 156.16796875 C489.31640625 156.82796875 489.31640625 157.48796875 489.31640625 158.16796875 C490.12078125 158.45671875 490.92515625 158.74546875 491.75390625 159.04296875 C494.31640625 160.16796875 494.31640625 160.16796875 495.31640625 162.16796875 C497.33310452 163.30147409 497.33310452 163.30147409 499.31640625 164.16796875 C499.31640625 164.82796875 499.31640625 165.48796875 499.31640625 166.16796875 C500.39921875 166.50828125 500.39921875 166.50828125 501.50390625 166.85546875 C504.89620388 168.43854098 506.70054033 170.49126874 509.31640625 173.16796875 C511.42798968 174.77135393 513.57076522 176.31473779 515.7421875 177.8359375 C516.52142578 178.49529297 516.52142578 178.49529297 517.31640625 179.16796875 C517.31640625 179.82796875 517.31640625 180.48796875 517.31640625 181.16796875 C517.89390625 181.43609375 518.47140625 181.70421875 519.06640625 181.98046875 C521.37190668 183.19726064 523.33696817 184.47130754 525.31640625 186.16796875 C525.31640625 186.82796875 525.31640625 187.48796875 525.31640625 188.16796875 C526.63640625 188.82796875 527.95640625 189.48796875 529.31640625 190.16796875 C529.31640625 190.82796875 529.31640625 191.48796875 529.31640625 192.16796875 C529.88488281 192.4309375 530.45335937 192.69390625 531.0390625 192.96484375 C536.26556464 195.72601469 541.25676302 199.59100103 544.94140625 204.23046875 C546.85341094 206.59531666 548.50854934 208.26126293 550.81640625 210.16796875 C554.0797918 212.86748638 556.6099037 215.90628619 559.31640625 219.16796875 C560.30640625 219.99296875 561.29640625 220.81796875 562.31640625 221.66796875 C565.42346341 224.25718305 567.73254363 227.06733361 570.31640625 230.16796875 C571.67765625 231.25078125 571.67765625 231.25078125 573.06640625 232.35546875 C577.87465912 236.18193177 581.72733124 241.21504523 585.31640625 246.16796875 C585.31640625 246.82796875 585.31640625 247.48796875 585.31640625 248.16796875 C586.63640625 248.82796875 587.95640625 249.48796875 589.31640625 250.16796875 C589.31640625 250.82796875 589.31640625 251.48796875 589.31640625 252.16796875 C590.30640625 252.49796875 591.29640625 252.82796875 592.31640625 253.16796875 C596.31640625 257.62511161 596.31640625 257.62511161 596.31640625 260.16796875 C597.30640625 260.49796875 598.29640625 260.82796875 599.31640625 261.16796875 C600.00390625 263.23046875 600.00390625 263.23046875 600.31640625 265.16796875 C600.97640625 265.16796875 601.63640625 265.16796875 602.31640625 265.16796875 C604.05560727 267.13601201 605.69352152 269.10908513 607.31640625 271.16796875 C608.07953125 272.07546875 608.84265625 272.98296875 609.62890625 273.91796875 C611.31640625 276.16796875 611.31640625 276.16796875 611.31640625 278.16796875 C612.30640625 278.49796875 613.29640625 278.82796875 614.31640625 279.16796875 C614.64640625 280.15796875 614.97640625 281.14796875 615.31640625 282.16796875 C616.30640625 282.82796875 617.29640625 283.48796875 618.31640625 284.16796875 C618.64640625 285.15796875 618.97640625 286.14796875 619.31640625 287.16796875 C620.62770547 288.52297794 621.96332312 289.85468218 623.31640625 291.16796875 C626.31640625 294.81082589 626.31640625 294.81082589 626.31640625 297.16796875 C626.97640625 297.16796875 627.63640625 297.16796875 628.31640625 297.16796875 C628.60515625 297.80734375 628.89390625 298.44671875 629.19140625 299.10546875 C630.14464076 301.32002954 630.14464076 301.32002954 632.31640625 302.16796875 C633.04334529 304.14685836 633.71456876 306.14751433 634.31640625 308.16796875 C634.97640625 308.16796875 635.63640625 308.16796875 636.31640625 308.16796875 C637.71875 309.99609375 637.71875 309.99609375 639.25390625 312.41796875 C640.7700856 314.79111904 642.2452263 317.07919929 644.0078125 319.27734375 C645.31640625 321.16796875 645.31640625 321.16796875 645.31640625 324.16796875 C646.30640625 324.49796875 647.29640625 324.82796875 648.31640625 325.16796875 C649.3343167 326.84259562 650.34395625 328.52444288 651.265625 330.25390625 C652.27056773 332.08447108 653.37312716 333.76855599 654.56640625 335.48046875 C656.31640625 338.16796875 656.31640625 338.16796875 656.31640625 340.16796875 C656.97640625 340.16796875 657.63640625 340.16796875 658.31640625 340.16796875 C658.97640625 342.14796875 659.63640625 344.12796875 660.31640625 346.16796875 C660.97640625 346.16796875 661.63640625 346.16796875 662.31640625 346.16796875 C663.77703475 348.81535791 664.31640625 350.06245209 664.31640625 353.16796875 C664.97640625 353.16796875 665.63640625 353.16796875 666.31640625 353.16796875 C667.15489429 354.62334443 667.98704559 356.08237248 668.81640625 357.54296875 C669.5125 358.76113281 669.5125 358.76113281 670.22265625 360.00390625 C671.31640625 362.16796875 671.31640625 362.16796875 671.31640625 364.16796875 C671.97640625 364.16796875 672.63640625 364.16796875 673.31640625 364.16796875 C674.31640625 366.16796875 675.31640625 368.16796875 676.31640625 370.16796875 C677.15171875 371.77671875 677.15171875 371.77671875 678.00390625 373.41796875 C679.31640625 376.16796875 679.31640625 376.16796875 679.31640625 378.16796875 C679.97640625 378.16796875 680.63640625 378.16796875 681.31640625 378.16796875 C682.31640625 380.16796875 683.31640625 382.16796875 684.31640625 384.16796875 C684.70828125 384.88984375 685.10015625 385.61171875 685.50390625 386.35546875 C686.31640625 388.16796875 686.31640625 388.16796875 686.31640625 391.16796875 C686.97640625 391.16796875 687.63640625 391.16796875 688.31640625 391.16796875 C689.77703475 393.81535791 690.31640625 395.06245209 690.31640625 398.16796875 C690.97640625 398.16796875 691.63640625 398.16796875 692.31640625 398.16796875 C693.57305603 401.07397136 694.31640625 402.96401459 694.31640625 406.16796875 C694.97640625 406.16796875 695.63640625 406.16796875 696.31640625 406.16796875 C697.82586505 409.26762278 699.32231292 412.37338278 700.81640625 415.48046875 C701.24566406 416.36154297 701.67492188 417.24261719 702.1171875 418.15039062 C702.72626953 419.42172852 702.72626953 419.42172852 703.34765625 420.71875 C703.72470703 421.49903564 704.10175781 422.27932129 704.49023438 423.08325195 C705.31640625 425.16796875 705.31640625 425.16796875 705.31640625 428.16796875 C705.97640625 428.16796875 706.63640625 428.16796875 707.31640625 428.16796875 C707.97640625 431.13796875 708.63640625 434.10796875 709.31640625 437.16796875 C709.97640625 437.16796875 710.63640625 437.16796875 711.31640625 437.16796875 C712.15626709 439.10264817 712.98808652 441.04082004 713.81640625 442.98046875 C714.28046875 444.05941406 714.74453125 445.13835937 715.22265625 446.25 C716.31640625 449.16796875 716.31640625 449.16796875 716.31640625 452.16796875 C716.97640625 452.16796875 717.63640625 452.16796875 718.31640625 452.16796875 C718.97640625 455.46796875 719.63640625 458.76796875 720.31640625 462.16796875 C720.97640625 462.16796875 721.63640625 462.16796875 722.31640625 462.16796875 C722.71472656 463.31394531 723.11304688 464.45992188 723.5234375 465.640625 C724.05846563 467.17061773 724.5936291 468.70056313 725.12890625 470.23046875 C725.38994141 470.98263672 725.65097656 471.73480469 725.91992188 472.50976562 C727.16680402 476.06568877 728.45684091 479.54467159 730.015625 482.9765625 C731.31640625 486.16796875 731.31640625 486.16796875 731.31640625 490.16796875 C731.97640625 490.16796875 732.63640625 490.16796875 733.31640625 490.16796875 C734.50928036 494.04480962 735.31640625 497.08418798 735.31640625 501.16796875 C735.97640625 501.16796875 736.63640625 501.16796875 737.31640625 501.16796875 C738.45404976 505.43413191 739.31640625 508.73283186 739.31640625 513.16796875 C739.97640625 513.16796875 740.63640625 513.16796875 741.31640625 513.16796875 C744.27770697 523.00956817 747.09107289 532.86963991 749.6159668 542.83325195 C750.62169177 546.75202483 751.79289041 550.41428505 753.31640625 554.16796875 C753.69002104 555.80512801 754.02383226 557.45190323 754.31640625 559.10546875 C754.79923629 561.8256987 755.37171249 564.33319326 756.25 566.95703125 C757.52554061 570.79767002 758.46292904 574.66641846 759.37890625 578.60546875 C759.55228516 579.33056641 759.72566406 580.05566406 759.90429688 580.80273438 C760.94520564 585.24155223 761.69067969 589.64821169 762.31640625 594.16796875 C762.80289594 595.78960105 763.28975246 597.41112849 763.78125 599.03125 C764.75955285 602.93732048 765.23666777 606.93288968 765.81640625 610.9140625 C766.2370446 613.65149802 766.73793507 616.3359044 767.31640625 619.04296875 C768.44369795 624.44163915 769.09410079 629.88652432 769.75390625 635.359375 C770.16014685 638.10996238 770.64707738 640.68154393 771.28686523 643.37329102 C772.2824112 647.79860014 772.89122894 652.18262325 773.3515625 656.69140625 C773.43514511 657.47705963 773.51872772 658.26271301 773.60484314 659.07217407 C773.77955695 660.72737372 773.9516898 662.38284769 774.12133789 664.03857422 C774.37480957 666.50313585 774.63890791 668.96638419 774.90429688 671.4296875 C775.07486686 673.05852601 775.24480689 674.68743063 775.4140625 676.31640625 C775.49012222 677.02131195 775.56618195 677.72621765 775.64454651 678.45248413 C777.22638815 694.15870857 777.47798054 709.91933248 777.484375 725.69140625 C777.48760503 727.61259992 777.49097026 729.53379336 777.49446106 731.45498657 C777.50039473 735.45681323 777.50230709 739.45861849 777.50170898 743.46044922 C777.50162799 747.49760443 777.50853744 751.53464552 777.5222168 755.57177734 C777.64851143 793.43350525 775.91498351 830.69623579 769.6484375 868.11474609 C769.12798325 871.33314332 768.69422939 874.56278569 768.25390625 877.79296875 C767.63469911 882.21441477 766.86021074 886.52354845 765.8203125 890.86328125 C764.96005945 894.79777192 764.38931708 898.78164334 763.78125 902.76171875 C763.31640625 905.16796875 763.31640625 905.16796875 762.31640625 906.16796875 C761.65464543 909.62425098 761.07559734 913.08576416 760.50976562 916.55859375 C759.72801151 921.20861304 758.68063098 925.64503907 757.31640625 930.16796875 C756.70635168 932.41637947 756.10243983 934.66646372 755.50390625 936.91796875 C755.25278076 937.86047485 755.25278076 937.86047485 754.99658203 938.82202148 C753.99243969 942.59739532 753.00017586 946.37572 752.015625 950.15625 C751.79559814 950.99897461 751.57557129 951.84169922 751.34887695 952.70996094 C750.91985422 954.35468082 750.49252895 955.99984469 750.06713867 957.64550781 C748.96172275 961.8807698 747.73613143 966.02480189 746.31640625 970.16796875 C745.49915164 972.77077635 744.68656734 975.37470064 743.87890625 977.98046875 C738.11962384 996.46350305 731.29324664 1014.54809239 724.296875 1032.59375 C723.59501749 1034.4364755 722.93996388 1036.29729585 722.31640625 1038.16796875 C721.65640625 1038.16796875 720.99640625 1038.16796875 720.31640625 1038.16796875 C720.11015625 1039.38484375 719.90390625 1040.60171875 719.69140625 1041.85546875 C718.48467708 1047.39585306 716.11423646 1052.26341041 713.65625 1057.34765625 C712.25481116 1060.15033119 712.25481116 1060.15033119 711.31640625 1063.16796875 C710.65640625 1063.16796875 709.99640625 1063.16796875 709.31640625 1063.16796875 C708.65640625 1066.13796875 707.99640625 1069.10796875 707.31640625 1072.16796875 C706.65640625 1072.16796875 705.99640625 1072.16796875 705.31640625 1072.16796875 C705.23519531 1072.98523437 705.15398437 1073.8025 705.0703125 1074.64453125 C704.12926938 1079.04256696 702.32833503 1082.58041567 700.25390625 1086.54296875 C699.87685547 1087.27902344 699.49980469 1088.01507812 699.11132812 1088.7734375 C698.18696261 1090.57536521 697.25268011 1092.37219974 696.31640625 1094.16796875 C695.65640625 1094.16796875 694.99640625 1094.16796875 694.31640625 1094.16796875 C694.17203125 1095.11671875 694.02765625 1096.06546875 693.87890625 1097.04296875 C693.31640625 1100.16796875 693.31640625 1100.16796875 692.31640625 1102.16796875 C691.65640625 1102.16796875 690.99640625 1102.16796875 690.31640625 1102.16796875 C690.17203125 1102.95171875 690.02765625 1103.73546875 689.87890625 1104.54296875 C689.31640625 1107.16796875 689.31640625 1107.16796875 688.31640625 1109.16796875 C687.65640625 1109.16796875 686.99640625 1109.16796875 686.31640625 1109.16796875 C686.25453125 1110.37453125 686.25453125 1110.37453125 686.19140625 1111.60546875 C685.16918878 1115.76735415 683.36785079 1118.38305069 680.88671875 1121.82421875 C679.09105442 1124.50431476 677.74850527 1127.27616397 676.31640625 1130.16796875 C674.67299114 1133.15228676 672.96800327 1136.09881374 671.25390625 1139.04296875 C670.80724609 1139.82671875 670.36058594 1140.61046875 669.90039062 1141.41796875 C669.46919922 1142.15789062 669.03800781 1142.8978125 668.59375 1143.66015625 C668.20437256 1144.3341748 667.81499512 1145.00819336 667.41381836 1145.70263672 C667.05167236 1146.18619629 666.68952637 1146.66975586 666.31640625 1147.16796875 C665.65640625 1147.16796875 664.99640625 1147.16796875 664.31640625 1147.16796875 C663.65640625 1149.47796875 662.99640625 1151.78796875 662.31640625 1154.16796875 C661.65640625 1154.16796875 660.99640625 1154.16796875 660.31640625 1154.16796875 C659.65640625 1156.14796875 658.99640625 1158.12796875 658.31640625 1160.16796875 C657.65640625 1160.16796875 656.99640625 1160.16796875 656.31640625 1160.16796875 C656.08953125 1160.84859375 655.86265625 1161.52921875 655.62890625 1162.23046875 C654.23636327 1165.34711255 652.51259324 1167.78989754 650.4921875 1170.51953125 C649.21035665 1172.31664959 648.20527935 1174.14780261 647.31640625 1176.16796875 C646.65640625 1176.16796875 645.99640625 1176.16796875 645.31640625 1176.16796875 C645.20989746 1176.74232666 645.10338867 1177.31668457 644.99365234 1177.90844727 C644.21498434 1180.50634646 643.09424955 1182.14503194 641.48046875 1184.3203125 C640.91070313 1185.09697266 640.3409375 1185.87363281 639.75390625 1186.67382812 C638.85671875 1187.87749023 638.85671875 1187.87749023 637.94140625 1189.10546875 C636.76509842 1190.69656635 635.59056593 1192.28897827 634.41796875 1193.8828125 C633.87043945 1194.62515137 633.32291016 1195.36749023 632.75878906 1196.13232422 C631.18386684 1198.29160077 631.18386684 1198.29160077 629.52734375 1201.234375 C629.12773438 1201.87246094 628.728125 1202.51054688 628.31640625 1203.16796875 C627.65640625 1203.16796875 626.99640625 1203.16796875 626.31640625 1203.16796875 C626.08953125 1203.70421875 625.86265625 1204.24046875 625.62890625 1204.79296875 C623.90175565 1207.91828888 621.59912909 1210.42870134 619.31640625 1213.16796875 C618.63463209 1214.49364074 617.96449189 1215.82550563 617.31640625 1217.16796875 C616.3362025 1218.18738065 615.33837617 1219.19043231 614.31640625 1220.16796875 C613.98640625 1220.82796875 613.65640625 1221.48796875 613.31640625 1222.16796875 C612.65640625 1222.16796875 611.99640625 1222.16796875 611.31640625 1222.16796875 C611.05859375 1222.73 610.80078125 1223.29203125 610.53515625 1223.87109375 C609.17470848 1226.43501454 607.58851663 1228.6202324 605.81640625 1230.91796875 C605.20796875 1231.7171875 604.59953125 1232.51640625 603.97265625 1233.33984375 C603.42609375 1233.943125 602.87953125 1234.54640625 602.31640625 1235.16796875 C601.65640625 1235.16796875 600.99640625 1235.16796875 600.31640625 1235.16796875 C599.65640625 1236.81796875 598.99640625 1238.46796875 598.31640625 1240.16796875 C597.65640625 1240.16796875 596.99640625 1240.16796875 596.31640625 1240.16796875 C595.65640625 1241.48796875 594.99640625 1242.80796875 594.31640625 1244.16796875 C593.65640625 1244.16796875 592.99640625 1244.16796875 592.31640625 1244.16796875 C591.98640625 1245.48796875 591.65640625 1246.80796875 591.31640625 1248.16796875 C590.65640625 1248.16796875 589.99640625 1248.16796875 589.31640625 1248.16796875 C588.65640625 1249.48796875 587.99640625 1250.80796875 587.31640625 1252.16796875 C586.65640625 1252.16796875 585.99640625 1252.16796875 585.31640625 1252.16796875 C585.0534375 1252.73644531 584.79046875 1253.30492187 584.51953125 1253.890625 C581.75836031 1259.11712714 577.89337397 1264.10832552 573.25390625 1267.79296875 C570.88905834 1269.70497344 569.22311207 1271.36011184 567.31640625 1273.66796875 C564.61688862 1276.9313543 561.57808881 1279.4614662 558.31640625 1282.16796875 C557.07890625 1283.65296875 557.07890625 1283.65296875 555.81640625 1285.16796875 C553.22719195 1288.27502591 550.41704139 1290.58410613 547.31640625 1293.16796875 C546.59453125 1294.07546875 545.87265625 1294.98296875 545.12890625 1295.91796875 C541.30244323 1300.72622162 536.26932977 1304.57889374 531.31640625 1308.16796875 C530.65640625 1308.16796875 529.99640625 1308.16796875 529.31640625 1308.16796875 C528.65640625 1309.48796875 527.99640625 1310.80796875 527.31640625 1312.16796875 C526.65640625 1312.16796875 525.99640625 1312.16796875 525.31640625 1312.16796875 C524.98640625 1313.15796875 524.65640625 1314.14796875 524.31640625 1315.16796875 C523.32640625 1315.16796875 522.33640625 1315.16796875 521.31640625 1315.16796875 C520.65640625 1316.48796875 519.99640625 1317.80796875 519.31640625 1319.16796875 C518.65640625 1319.16796875 517.99640625 1319.16796875 517.31640625 1319.16796875 C516.98640625 1320.15796875 516.65640625 1321.14796875 516.31640625 1322.16796875 C514.25390625 1322.85546875 514.25390625 1322.85546875 512.31640625 1323.16796875 C512.31640625 1323.82796875 512.31640625 1324.48796875 512.31640625 1325.16796875 C510.58248674 1326.7743089 508.77831525 1328.30549745 506.94140625 1329.79296875 C505.94367188 1330.61023437 504.9459375 1331.4275 503.91796875 1332.26953125 C501.31640625 1334.16796875 501.31640625 1334.16796875 499.31640625 1334.16796875 C498.98640625 1335.15796875 498.65640625 1336.14796875 498.31640625 1337.16796875 C497.32640625 1337.49796875 496.33640625 1337.82796875 495.31640625 1338.16796875 C494.65640625 1339.15796875 493.99640625 1340.14796875 493.31640625 1341.16796875 C491.65792448 1342.18148539 489.98974664 1343.1791767 488.31640625 1344.16796875 C487.24079393 1345.04801519 486.17845255 1345.94449335 485.12890625 1346.85546875 C482.31640625 1349.16796875 482.31640625 1349.16796875 480.31640625 1349.16796875 C480.31640625 1349.82796875 480.31640625 1350.48796875 480.31640625 1351.16796875 C478.41796875 1352.67578125 478.41796875 1352.67578125 475.94140625 1354.29296875 C475.12929687 1354.83179688 474.3171875 1355.370625 473.48046875 1355.92578125 C471.31640625 1357.16796875 471.31640625 1357.16796875 469.31640625 1357.16796875 C469.31640625 1357.82796875 469.31640625 1358.48796875 469.31640625 1359.16796875 C467.99640625 1359.49796875 466.67640625 1359.82796875 465.31640625 1360.16796875 C465.31640625 1360.82796875 465.31640625 1361.48796875 465.31640625 1362.16796875 C463.453125 1363.67578125 463.453125 1363.67578125 461.00390625 1365.29296875 C460.20339844 1365.83179688 459.40289063 1366.370625 458.578125 1366.92578125 C456.31640625 1368.16796875 456.31640625 1368.16796875 453.31640625 1368.16796875 C452.98640625 1369.15796875 452.65640625 1370.14796875 452.31640625 1371.16796875 C450.64177938 1372.1858792 448.95993212 1373.19551875 447.23046875 1374.1171875 C445.39990392 1375.12213023 443.71581901 1376.22468966 442.00390625 1377.41796875 C439.31640625 1379.16796875 439.31640625 1379.16796875 437.31640625 1379.16796875 C437.31640625 1379.82796875 437.31640625 1380.48796875 437.31640625 1381.16796875 C435.33640625 1381.82796875 433.35640625 1382.48796875 431.31640625 1383.16796875 C431.31640625 1383.82796875 431.31640625 1384.48796875 431.31640625 1385.16796875 C428.66901709 1386.62859725 427.42192291 1387.16796875 424.31640625 1387.16796875 C424.31640625 1387.82796875 424.31640625 1388.48796875 424.31640625 1389.16796875 C422.86103057 1390.00645679 421.40200252 1390.83860809 419.94140625 1391.66796875 C419.12929687 1392.13203125 418.3171875 1392.59609375 417.48046875 1393.07421875 C415.31640625 1394.16796875 415.31640625 1394.16796875 413.31640625 1394.16796875 C413.31640625 1394.82796875 413.31640625 1395.48796875 413.31640625 1396.16796875 C412.51203125 1396.55984375 411.70765625 1396.95171875 410.87890625 1397.35546875 C405.78104138 1399.9491193 400.79185756 1402.73275448 395.84375 1405.6015625 C394.65458984 1406.28412109 394.65458984 1406.28412109 393.44140625 1406.98046875 C392.36246094 1407.60888672 392.36246094 1407.60888672 391.26171875 1408.25 C389.31640625 1409.16796875 389.31640625 1409.16796875 386.31640625 1409.16796875 C385.98640625 1410.15796875 385.65640625 1411.14796875 385.31640625 1412.16796875 C383.33640625 1412.49796875 381.35640625 1412.82796875 379.31640625 1413.16796875 C379.31640625 1413.82796875 379.31640625 1414.48796875 379.31640625 1415.16796875 C376.41040364 1416.42461853 374.52036041 1417.16796875 371.31640625 1417.16796875 C371.31640625 1417.82796875 371.31640625 1418.48796875 371.31640625 1419.16796875 C368.21675222 1420.67742755 365.11099222 1422.17387542 362.00390625 1423.66796875 C361.12283203 1424.09722656 360.24175781 1424.52648438 359.33398438 1424.96875 C358.48642578 1425.37480469 357.63886719 1425.78085938 356.765625 1426.19921875 C355.98533936 1426.57626953 355.20505371 1426.95332031 354.40112305 1427.34179688 C352.31640625 1428.16796875 352.31640625 1428.16796875 349.31640625 1428.16796875 C349.31640625 1428.82796875 349.31640625 1429.48796875 349.31640625 1430.16796875 C347.38172683 1431.00782959 345.44355496 1431.83964902 343.50390625 1432.66796875 C342.42496094 1433.13203125 341.34601563 1433.59609375 340.234375 1434.07421875 C337.31640625 1435.16796875 337.31640625 1435.16796875 334.31640625 1435.16796875 C334.31640625 1435.82796875 334.31640625 1436.48796875 334.31640625 1437.16796875 C331.34640625 1437.82796875 328.37640625 1438.48796875 325.31640625 1439.16796875 C325.31640625 1439.82796875 325.31640625 1440.48796875 325.31640625 1441.16796875 C324.79844482 1441.35383545 324.2804834 1441.53970215 323.74682617 1441.73120117 C312.09074609 1445.83889493 312.09074609 1445.83889493 300.75390625 1450.73046875 C294.59118721 1453.65727732 288.12991326 1455.64889111 281.6484375 1457.73828125 C278.11875385 1458.88108382 274.65618221 1460.15587521 271.18969727 1461.47607422 C268.45251695 1462.48704372 265.67344694 1463.33065319 262.87890625 1464.16796875 C256.90494617 1465.98013888 250.97498035 1467.88874704 245.08203125 1469.94921875 C240.57693608 1471.50269984 236.13687561 1472.73065526 231.45703125 1473.640625 C229.2323156 1474.12846464 229.2323156 1474.12846464 226.9140625 1475.1875 C224.03997751 1476.27230501 221.56136306 1476.57194778 218.50390625 1476.79296875 C217.52808594 1476.86773438 216.55226563 1476.9425 215.546875 1477.01953125 C214.81082031 1477.06851562 214.07476563 1477.1175 213.31640625 1477.16796875 C213.31640625 1477.82796875 213.31640625 1478.48796875 213.31640625 1479.16796875 C204.92698348 1481.19349719 196.53842051 1482.91516662 188.04296875 1484.421875 C184.31628989 1485.11526666 184.31628989 1485.11526666 180.734375 1486.1953125 C177.47597771 1487.12255927 174.35541184 1487.70051093 171.00390625 1488.16796875 C166.28952211 1488.8304669 161.65052309 1489.68997877 156.98754883 1490.63720703 C115.97269474 1498.78694588 74.90039002 1500.51772908 33.22387695 1500.42871094 C27.83329487 1500.41731005 22.44291015 1500.42409364 17.05233479 1500.43559361 C-19.13239784 1500.50110568 -54.67728385 1498.80493843 -90.44140625 1492.859375 C-95.67603727 1491.99012494 -100.93058401 1491.29018943 -106.19140625 1490.59765625 C-108.68359375 1490.16796875 -108.68359375 1490.16796875 -109.68359375 1489.16796875 C-112.59847702 1488.67015947 -115.50801562 1488.21825958 -118.43359375 1487.79296875 C-126.29039778 1486.60035293 -133.96496908 1485.06821632 -141.68359375 1483.16796875 C-143.13752166 1482.82987737 -144.59198561 1482.49408591 -146.046875 1482.16015625 C-146.80468262 1481.98540771 -147.56249023 1481.81065918 -148.34326172 1481.63061523 C-149.81983043 1481.2901973 -151.29670118 1480.95108579 -152.77392578 1480.61352539 C-156.83166727 1479.6675518 -160.74013448 1478.5046406 -164.68359375 1477.16796875 C-166.17775508 1476.80937003 -167.67768782 1476.47351488 -169.18359375 1476.16796875 C-172.7966236 1475.43489023 -176.19099102 1474.34677695 -179.68359375 1473.16796875 C-181.78433639 1472.55200196 -183.88877473 1471.94854656 -185.99609375 1471.35546875 C-194.24264747 1469.01821021 -202.46343864 1466.59619859 -210.68359375 1464.16796875 C-210.68359375 1463.50796875 -210.68359375 1462.84796875 -210.68359375 1462.16796875 C-211.83859375 1462.06484375 -212.99359375 1461.96171875 -214.18359375 1461.85546875 C-217.97244027 1461.38770992 -221.19214946 1460.3582007 -224.71875 1458.93359375 C-227.6525846 1457.79038981 -230.64599433 1456.99065193 -233.68359375 1456.16796875 C-233.68359375 1455.50796875 -233.68359375 1454.84796875 -233.68359375 1454.16796875 C-234.61171875 1454.08546875 -235.53984375 1454.00296875 -236.49609375 1453.91796875 C-241.80893873 1453.1855395 -246.71138173 1451.10110724 -251.68359375 1449.16796875 C-251.68359375 1448.50796875 -251.68359375 1447.84796875 -251.68359375 1447.16796875 C-252.65296875 1447.08546875 -253.62234375 1447.00296875 -254.62109375 1446.91796875 C-258.48373179 1446.36174887 -261.64223432 1444.99563771 -265.15625 1443.34375 C-268.0097645 1442.01622625 -270.9000272 1440.80738577 -273.80859375 1439.60546875 C-278.11337977 1437.82190012 -282.40578131 1436.01520594 -286.68359375 1434.16796875 C-286.68359375 1433.50796875 -286.68359375 1432.84796875 -286.68359375 1432.16796875 C-287.50859375 1432.08546875 -288.33359375 1432.00296875 -289.18359375 1431.91796875 C-292.08317428 1431.29663007 -293.84496753 1430.69689831 -296.40234375 1429.37109375 C-297.45325195 1428.83210449 -297.45325195 1428.83210449 -298.52539062 1428.28222656 C-299.59370117 1427.73066895 -299.59370117 1427.73066895 -300.68359375 1427.16796875 C-302.0158937 1426.4992393 -303.34921035 1425.83253113 -304.68359375 1425.16796875 C-311.35026042 1421.83463542 -318.01692708 1418.50130208 -324.68359375 1415.16796875 C-324.68359375 1414.50796875 -324.68359375 1413.84796875 -324.68359375 1413.16796875 C-325.48796875 1413.10609375 -326.29234375 1413.04421875 -327.12109375 1412.98046875 C-331.84713885 1411.90259882 -335.55872802 1409.65205456 -339.68359375 1407.16796875 C-339.68359375 1406.50796875 -339.68359375 1405.84796875 -339.68359375 1405.16796875 C-341.66359375 1404.83796875 -343.64359375 1404.50796875 -345.68359375 1404.16796875 C-345.68359375 1403.50796875 -345.68359375 1402.84796875 -345.68359375 1402.16796875 C-346.28171875 1402.02359375 -346.87984375 1401.87921875 -347.49609375 1401.73046875 C-349.24509779 1401.28072485 -350.97036398 1400.73904534 -352.68359375 1400.16796875 C-352.68359375 1399.50796875 -352.68359375 1398.84796875 -352.68359375 1398.16796875 C-353.95203125 1397.79671875 -353.95203125 1397.79671875 -355.24609375 1397.41796875 C-359.06786849 1396.02823248 -362.20227438 1394.25676037 -365.68359375 1392.16796875 C-365.68359375 1391.50796875 -365.68359375 1390.84796875 -365.68359375 1390.16796875 C-367.00359375 1389.83796875 -368.32359375 1389.50796875 -369.68359375 1389.16796875 C-369.68359375 1388.50796875 -369.68359375 1387.84796875 -369.68359375 1387.16796875 C-371.66359375 1386.83796875 -373.64359375 1386.50796875 -375.68359375 1386.16796875 C-376.01359375 1385.17796875 -376.34359375 1384.18796875 -376.68359375 1383.16796875 C-378.01076667 1382.81089604 -379.34619668 1382.48460415 -380.68359375 1382.16796875 C-382.98499883 1380.90330775 -385.20669338 1379.61310469 -387.43359375 1378.23046875 C-388.03558594 1377.87017578 -388.63757813 1377.50988281 -389.2578125 1377.13867188 C-390.77084769 1376.20717742 -392.23254244 1375.19335039 -393.68359375 1374.16796875 C-393.68359375 1373.50796875 -393.68359375 1372.84796875 -393.68359375 1372.16796875 C-395.66359375 1371.50796875 -397.64359375 1370.84796875 -399.68359375 1370.16796875 C-399.68359375 1369.50796875 -399.68359375 1368.84796875 -399.68359375 1368.16796875 C-401.66359375 1367.50796875 -403.64359375 1366.84796875 -405.68359375 1366.16796875 C-405.68359375 1365.50796875 -405.68359375 1364.84796875 -405.68359375 1364.16796875 C-407.33359375 1363.50796875 -408.98359375 1362.84796875 -410.68359375 1362.16796875 C-410.68359375 1361.50796875 -410.68359375 1360.84796875 -410.68359375 1360.16796875 C-412.00359375 1359.83796875 -413.32359375 1359.50796875 -414.68359375 1359.16796875 C-414.68359375 1358.50796875 -414.68359375 1357.84796875 -414.68359375 1357.16796875 C-415.65296875 1356.87921875 -416.62234375 1356.59046875 -417.62109375 1356.29296875 C-420.68359375 1355.16796875 -420.68359375 1355.16796875 -421.68359375 1353.16796875 C-423.70029202 1352.03446341 -423.70029202 1352.03446341 -425.68359375 1351.16796875 C-425.68359375 1350.50796875 -425.68359375 1349.84796875 -425.68359375 1349.16796875 C-426.76640625 1348.76578125 -426.76640625 1348.76578125 -427.87109375 1348.35546875 C-432.58493446 1346.36518045 -436.30207013 1344.05045883 -439.68359375 1340.16796875 C-439.68359375 1339.50796875 -439.68359375 1338.84796875 -439.68359375 1338.16796875 C-440.32296875 1338.06484375 -440.96234375 1337.96171875 -441.62109375 1337.85546875 C-442.30171875 1337.62859375 -442.98234375 1337.40171875 -443.68359375 1337.16796875 C-444.01359375 1336.17796875 -444.34359375 1335.18796875 -444.68359375 1334.16796875 C-446.33119755 1333.45549143 -448.00122904 1332.79396492 -449.68359375 1332.16796875 C-451.99609375 1330.66796875 -451.99609375 1330.66796875 -453.68359375 1329.16796875 C-453.68359375 1328.50796875 -453.68359375 1327.84796875 -453.68359375 1327.16796875 C-454.42609375 1326.92046875 -455.16859375 1326.67296875 -455.93359375 1326.41796875 C-458.91382462 1325.06331836 -460.58278627 1323.65781465 -462.68359375 1321.16796875 C-462.68359375 1320.50796875 -462.68359375 1319.84796875 -462.68359375 1319.16796875 C-463.26109375 1319.08546875 -463.83859375 1319.00296875 -464.43359375 1318.91796875 C-467.33752735 1317.94999088 -468.72099979 1316.48102591 -470.68359375 1314.16796875 C-470.68359375 1313.50796875 -470.68359375 1312.84796875 -470.68359375 1312.16796875 C-471.21984375 1311.92046875 -471.75609375 1311.67296875 -472.30859375 1311.41796875 C-477.99130193 1308.42706971 -481.63477436 1305.12777251 -485.68359375 1300.16796875 C-487.66316317 1298.47708653 -489.66304571 1296.80966403 -491.68359375 1295.16796875 C-493.37070798 1293.52200365 -495.03815595 1291.85559726 -496.68359375 1290.16796875 C-499.0632938 1287.72877619 -501.34842878 1285.42375254 -504.05859375 1283.35546875 C-508.31215219 1279.81083672 -511.73236975 1275.5269112 -515.25390625 1271.26953125 C-517.96102034 1268.02382901 -520.63396439 1265.3927752 -523.9609375 1262.7578125 C-527.99629397 1259.03357195 -531.46663224 1254.60737564 -534.68359375 1250.16796875 C-534.68359375 1249.50796875 -534.68359375 1248.84796875 -534.68359375 1248.16796875 C-535.58078125 1247.76578125 -535.58078125 1247.76578125 -536.49609375 1247.35546875 C-538.70178408 1246.158094 -540.11942562 1245.12317891 -541.68359375 1243.16796875 C-541.68359375 1242.17796875 -541.68359375 1241.18796875 -541.68359375 1240.16796875 C-542.67359375 1239.83796875 -543.66359375 1239.50796875 -544.68359375 1239.16796875 C-549.68359375 1233.70285247 -549.68359375 1233.70285247 -549.68359375 1231.16796875 C-550.34359375 1231.16796875 -551.00359375 1231.16796875 -551.68359375 1231.16796875 C-556.68359375 1225.81082589 -556.68359375 1225.81082589 -556.68359375 1222.16796875 C-557.54984375 1221.85859375 -557.54984375 1221.85859375 -558.43359375 1221.54296875 C-561.48819084 1219.67627053 -562.77775803 1217.15377805 -564.68359375 1214.16796875 C-565.34359375 1213.83796875 -566.00359375 1213.50796875 -566.68359375 1213.16796875 C-567.70225604 1211.51264252 -568.70170188 1209.84536737 -569.68359375 1208.16796875 C-570.34359375 1207.50796875 -571.00359375 1206.84796875 -571.68359375 1206.16796875 C-571.68359375 1205.17796875 -571.68359375 1204.18796875 -571.68359375 1203.16796875 C-572.67359375 1202.83796875 -573.66359375 1202.50796875 -574.68359375 1202.16796875 C-575.37109375 1200.10546875 -575.37109375 1200.10546875 -575.68359375 1198.16796875 C-576.34359375 1198.16796875 -577.00359375 1198.16796875 -577.68359375 1198.16796875 C-579.68359375 1195.16796875 -579.68359375 1195.16796875 -579.68359375 1192.16796875 C-580.67359375 1191.83796875 -581.66359375 1191.50796875 -582.68359375 1191.16796875 C-582.68359375 1190.17796875 -582.68359375 1189.18796875 -582.68359375 1188.16796875 C-583.67359375 1187.83796875 -584.66359375 1187.50796875 -585.68359375 1187.16796875 C-586.37109375 1185.10546875 -586.37109375 1185.10546875 -586.68359375 1183.16796875 C-587.34359375 1183.16796875 -588.00359375 1183.16796875 -588.68359375 1183.16796875 C-589.67359375 1180.19796875 -589.67359375 1180.19796875 -590.68359375 1177.16796875 C-591.34359375 1177.16796875 -592.00359375 1177.16796875 -592.68359375 1177.16796875 C-594.33984375 1174.9375 -594.33984375 1174.9375 -596.18359375 1171.98046875 C-596.79203125 1171.01753906 -597.40046875 1170.05460937 -598.02734375 1169.0625 C-599.50979779 1166.47170179 -600.66049382 1163.96614706 -601.68359375 1161.16796875 C-602.34359375 1161.16796875 -603.00359375 1161.16796875 -603.68359375 1161.16796875 C-605.14422225 1158.52057959 -605.68359375 1157.27348541 -605.68359375 1154.16796875 C-606.67359375 1153.83796875 -607.66359375 1153.50796875 -608.68359375 1153.16796875 C-609.8515625 1151.64453125 -609.8515625 1151.64453125 -610.87109375 1149.79296875 C-611.21527344 1149.18710938 -611.55945313 1148.58125 -611.9140625 1147.95703125 C-612.68359375 1146.16796875 -612.68359375 1146.16796875 -612.68359375 1143.16796875 C-613.67359375 1142.83796875 -614.66359375 1142.50796875 -615.68359375 1142.16796875 C-617.91353812 1138.33246443 -619.37460642 1134.39700474 -620.68359375 1130.16796875 C-621.34359375 1130.16796875 -622.00359375 1130.16796875 -622.68359375 1130.16796875 C-624.14422225 1127.52057959 -624.68359375 1126.27348541 -624.68359375 1123.16796875 C-625.34359375 1123.16796875 -626.00359375 1123.16796875 -626.68359375 1123.16796875 C-627.05871094 1122.40613281 -627.43382812 1121.64429688 -627.8203125 1120.859375 C-631.28674295 1113.85626501 -631.28674295 1113.85626501 -634.99609375 1106.98046875 C-641.41654828 1095.56403353 -647.38945295 1083.9706827 -652.81445312 1072.05029297 C-653.73382657 1070.059178 -654.68181883 1068.08368238 -655.63671875 1066.109375 C-655.95817871 1065.43922363 -656.27963867 1064.76907227 -656.61083984 1064.07861328 C-657.50365984 1062.21983656 -658.40203995 1060.36373344 -659.30078125 1058.5078125 C-660.61494622 1055.33376998 -661.28014151 1052.56627799 -661.68359375 1049.16796875 C-662.34359375 1049.16796875 -663.00359375 1049.16796875 -663.68359375 1049.16796875 C-664.07546875 1047.90984375 -664.46734375 1046.65171875 -664.87109375 1045.35546875 C-666.05923824 1041.77430086 -667.45313725 1038.39396302 -669.05859375 1034.98046875 C-671.51946508 1029.70400589 -673.48378471 1024.32381442 -675.375 1018.8203125 C-676.36472938 1016.05793349 -677.40769422 1013.35885008 -678.515625 1010.64453125 C-680.92445882 1004.67127822 -683.04904305 998.60590043 -685.14794922 992.51782227 C-685.80942146 990.6030728 -686.47877215 988.69119389 -687.1484375 986.77929688 C-689.16061202 980.95858054 -691.0155998 975.2531261 -692.22387695 969.21313477 C-692.88471035 966.27325088 -693.88954297 963.47844482 -694.87158203 960.6328125 C-696.49496809 955.70505975 -697.78422754 950.67947107 -699.12109375 945.66796875 C-699.42893799 944.5166748 -699.73678223 943.36538086 -700.05395508 942.17919922 C-703.98947983 927.36420406 -707.29451703 912.50483409 -710.23095703 897.46191406 C-710.85959629 894.27599471 -711.52554846 891.09792817 -712.18359375 887.91796875 C-715.47046402 871.27041503 -717.98647907 854.59137145 -719.87109375 837.73046875 C-719.95567841 836.98318512 -720.04026306 836.23590149 -720.12741089 835.4659729 C-720.37457559 833.26436442 -720.61440933 831.06208263 -720.8515625 828.859375 C-720.98844482 827.59295166 -721.12532715 826.32652832 -721.26635742 825.02172852 C-722.6616661 809.76138193 -722.84641983 794.54916443 -722.8515625 779.234375 C-722.85478735 776.94441203 -722.85815227 774.65444926 -722.86164856 772.36448669 C-722.86759927 767.58486454 -722.86949275 762.80526035 -722.86889648 758.02563477 C-722.86879528 751.97858411 -722.88242257 745.93165197 -722.89966869 739.88462925 C-722.91093115 735.15778604 -722.91281136 730.43097015 -722.91228676 725.70411491 C-722.91344653 723.47877534 -722.91775155 721.25343457 -722.92561913 719.0281086 C-723.02354671 688.4632785 -719.7998571 658.21915885 -715.12109375 628.04296875 C-715.01517914 627.35547546 -714.90926453 626.66798218 -714.80014038 625.95965576 C-713.71050925 618.92998859 -712.50261328 612.04417621 -710.68359375 605.16796875 C-710.34539324 603.27655111 -710.03071983 601.3806867 -709.74609375 599.48046875 C-708.69500529 592.96209073 -707.21546161 586.58756381 -705.68359375 580.16796875 C-705.25240234 578.25564453 -705.25240234 578.25564453 -704.8125 576.3046875 C-701.45836673 561.48083819 -697.21310844 546.90943482 -692.6796875 532.40625 C-691.69994051 529.22111174 -690.76054554 526.02660314 -689.82983398 522.8269043 C-687.0203729 513.16944815 -684.05398907 503.58681825 -680.44921875 494.19140625 C-679.5757251 491.88288731 -678.75799775 489.55696478 -677.93359375 487.23046875 C-675.90164727 481.61731392 -673.62812608 476.11652462 -671.33666992 470.60595703 C-668.66621619 464.17058948 -666.14379095 457.68692447 -663.68359375 451.16796875 C-663.02359375 451.16796875 -662.36359375 451.16796875 -661.68359375 451.16796875 C-661.47734375 449.93046875 -661.27109375 448.69296875 -661.05859375 447.41796875 C-659.92195551 442.26682097 -657.71735006 437.97104897 -655.28125 433.3203125 C-652.78445211 428.39386776 -650.73676441 423.29181056 -648.68359375 418.16796875 C-648.02359375 418.16796875 -647.36359375 418.16796875 -646.68359375 418.16796875 C-646.57039795 417.44955811 -646.45720215 416.73114746 -646.34057617 415.9909668 C-645.64454166 413.00016523 -644.5987648 410.71436939 -643.171875 408 C-642.66076172 407.02353516 -642.14964844 406.04707031 -641.62304688 405.04101562 C-641.08615234 404.03103516 -640.54925781 403.02105469 -639.99609375 401.98046875 C-639.47853516 400.98982422 -638.96097656 399.99917969 -638.42773438 398.97851562 C-635.42457246 393.27512595 -632.27125288 387.7100396 -628.87182617 382.2331543 C-627.54632681 380.08786641 -627.54632681 380.08786641 -626.68359375 377.16796875 C-626.02359375 377.16796875 -625.36359375 377.16796875 -624.68359375 377.16796875 C-624.53921875 376.38421875 -624.39484375 375.60046875 -624.24609375 374.79296875 C-623.68359375 372.16796875 -623.68359375 372.16796875 -622.68359375 370.16796875 C-622.02359375 370.16796875 -621.36359375 370.16796875 -620.68359375 370.16796875 C-620.43609375 369.32234375 -620.18859375 368.47671875 -619.93359375 367.60546875 C-618.54385748 363.78369401 -616.77238537 360.64928812 -614.68359375 357.16796875 C-614.02359375 357.16796875 -613.36359375 357.16796875 -612.68359375 357.16796875 C-612.60109375 356.46671875 -612.51859375 355.76546875 -612.43359375 355.04296875 C-611.5035037 351.47762355 -609.91673006 349.07781303 -607.68359375 346.16796875 C-607.02359375 346.16796875 -606.36359375 346.16796875 -605.68359375 346.16796875 C-605.53921875 345.56984375 -605.39484375 344.97171875 -605.24609375 344.35546875 C-604.79634985 342.60646471 -604.25467034 340.88119852 -603.68359375 339.16796875 C-603.02359375 339.16796875 -602.36359375 339.16796875 -601.68359375 339.16796875 C-601.42578125 338.46285156 -601.16796875 337.75773437 -600.90234375 337.03125 C-599.58029189 333.9252756 -597.98611521 331.2081881 -596.18359375 328.35546875 C-595.57515625 327.37964844 -594.96671875 326.40382813 -594.33984375 325.3984375 C-593.79328125 324.66238281 -593.24671875 323.92632812 -592.68359375 323.16796875 C-592.02359375 323.16796875 -591.36359375 323.16796875 -590.68359375 323.16796875 C-590.02359375 321.18796875 -589.36359375 319.20796875 -588.68359375 317.16796875 C-588.02359375 317.16796875 -587.36359375 317.16796875 -586.68359375 317.16796875 C-586.02359375 315.51796875 -585.36359375 313.86796875 -584.68359375 312.16796875 C-584.02359375 312.16796875 -583.36359375 312.16796875 -582.68359375 312.16796875 C-582.60109375 311.63171875 -582.51859375 311.09546875 -582.43359375 310.54296875 C-581.40778104 307.29456184 -579.71795481 304.88045016 -577.68359375 302.16796875 C-577.02359375 302.16796875 -576.36359375 302.16796875 -575.68359375 302.16796875 C-575.02359375 300.51796875 -574.36359375 298.86796875 -573.68359375 297.16796875 C-573.02359375 297.16796875 -572.36359375 297.16796875 -571.68359375 297.16796875 C-571.58046875 296.56984375 -571.47734375 295.97171875 -571.37109375 295.35546875 C-570.58447519 292.85259151 -569.54813544 291.9548212 -567.68359375 290.16796875 C-567.35359375 289.17796875 -567.02359375 288.18796875 -566.68359375 287.16796875 C-565.70420585 286.14777302 -564.70463926 285.1464707 -563.68359375 284.16796875 C-563.35359375 283.50796875 -563.02359375 282.84796875 -562.68359375 282.16796875 C-562.02359375 282.16796875 -561.36359375 282.16796875 -560.68359375 282.16796875 C-560.02359375 280.84796875 -559.36359375 279.52796875 -558.68359375 278.16796875 C-558.02359375 278.16796875 -557.36359375 278.16796875 -556.68359375 278.16796875 C-556.60109375 277.61109375 -556.51859375 277.05421875 -556.43359375 276.48046875 C-555.44463834 273.43118956 -553.83601909 271.51606912 -551.68359375 269.16796875 C-551.02359375 269.16796875 -550.36359375 269.16796875 -549.68359375 269.16796875 C-549.43609375 268.42546875 -549.18859375 267.68296875 -548.93359375 266.91796875 C-547.57894336 263.93773788 -546.17343965 262.26877623 -543.68359375 260.16796875 C-543.02359375 260.16796875 -542.36359375 260.16796875 -541.68359375 260.16796875 C-541.60109375 259.59046875 -541.51859375 259.01296875 -541.43359375 258.41796875 C-540.46561588 255.51403515 -538.99665091 254.13056271 -536.68359375 252.16796875 C-536.02359375 252.16796875 -535.36359375 252.16796875 -534.68359375 252.16796875 C-534.43609375 251.44609375 -534.18859375 250.72421875 -533.93359375 249.98046875 C-531.9868272 245.60024402 -529.42465787 242.7828943 -525.74609375 239.73046875 C-522.61439228 237.11006548 -520.25339844 234.33080529 -517.68359375 231.16796875 C-516.01692708 229.50130208 -514.35026042 227.83463542 -512.68359375 226.16796875 C-511.69722871 225.00738162 -510.7184257 223.84033774 -509.74609375 222.66796875 C-506.98301318 219.394781 -504.01215463 216.85914563 -500.68359375 214.16796875 C-499.87921875 213.36359375 -499.07484375 212.55921875 -498.24609375 211.73046875 C-496.27457356 209.75894856 -494.32162183 208.0036929 -492.18359375 206.23046875 C-489.51958127 203.98768901 -487.43904408 201.62497675 -485.2734375 198.890625 C-481.54919695 194.85526853 -477.12300064 191.38493026 -472.68359375 188.16796875 C-472.02359375 188.16796875 -471.36359375 188.16796875 -470.68359375 188.16796875 C-470.41546875 187.56984375 -470.14734375 186.97171875 -469.87109375 186.35546875 C-468.673719 184.14977842 -467.63880391 182.73213688 -465.68359375 181.16796875 C-464.69359375 181.16796875 -463.70359375 181.16796875 -462.68359375 181.16796875 C-462.35359375 180.17796875 -462.02359375 179.18796875 -461.68359375 178.16796875 C-456.21847747 173.16796875 -456.21847747 173.16796875 -453.68359375 173.16796875 C-453.68359375 172.50796875 -453.68359375 171.84796875 -453.68359375 171.16796875 C-452.22265625 169.87890625 -452.22265625 169.87890625 -450.30859375 168.54296875 C-449.68210937 168.09695312 -449.055625 167.6509375 -448.41015625 167.19140625 C-446.68359375 166.16796875 -446.68359375 166.16796875 -444.68359375 166.16796875 C-444.47734375 165.59046875 -444.27109375 165.01296875 -444.05859375 164.41796875 C-442.19189553 161.36337166 -439.66940305 160.07380447 -436.68359375 158.16796875 C-436.35359375 157.50796875 -436.02359375 156.84796875 -435.68359375 156.16796875 C-434.02826752 155.14930646 -432.36099237 154.14986062 -430.68359375 153.16796875 C-430.02359375 152.50796875 -429.36359375 151.84796875 -428.68359375 151.16796875 C-427.69359375 151.16796875 -426.70359375 151.16796875 -425.68359375 151.16796875 C-425.35359375 150.17796875 -425.02359375 149.18796875 -424.68359375 148.16796875 C-422.62109375 147.48046875 -422.62109375 147.48046875 -420.68359375 147.16796875 C-420.68359375 146.50796875 -420.68359375 145.84796875 -420.68359375 145.16796875 C-419.22953125 144.76578125 -419.22953125 144.76578125 -417.74609375 144.35546875 C-416.23015625 143.76765625 -416.23015625 143.76765625 -414.68359375 143.16796875 C-414.35359375 142.17796875 -414.02359375 141.18796875 -413.68359375 140.16796875 C-412.69359375 140.16796875 -411.70359375 140.16796875 -410.68359375 140.16796875 C-410.35359375 139.17796875 -410.02359375 138.18796875 -409.68359375 137.16796875 C-407.62109375 136.48046875 -407.62109375 136.48046875 -405.68359375 136.16796875 C-405.68359375 135.50796875 -405.68359375 134.84796875 -405.68359375 134.16796875 C-403.70359375 133.50796875 -401.72359375 132.84796875 -399.68359375 132.16796875 C-399.68359375 131.50796875 -399.68359375 130.84796875 -399.68359375 130.16796875 C-397.70359375 129.50796875 -395.72359375 128.84796875 -393.68359375 128.16796875 C-393.68359375 127.50796875 -393.68359375 126.84796875 -393.68359375 126.16796875 C-393.04550781 125.83023438 -392.40742188 125.4925 -391.75 125.14453125 C-390.92371094 124.69851562 -390.09742188 124.2525 -389.24609375 123.79296875 C-388.42238281 123.35210937 -387.59867187 122.91125 -386.75 122.45703125 C-384.54892797 121.33378316 -384.54892797 121.33378316 -383.68359375 119.16796875 C-381.05778237 117.59248192 -379.81259588 117.16796875 -376.68359375 117.16796875 C-376.35359375 116.17796875 -376.02359375 115.18796875 -375.68359375 114.16796875 C-372.93886511 112.58212553 -370.47790157 111.33971098 -367.37109375 110.66796875 C-366.81421875 110.50296875 -366.25734375 110.33796875 -365.68359375 110.16796875 C-365.35359375 109.17796875 -365.02359375 108.18796875 -364.68359375 107.16796875 C-360.84808943 104.93802438 -356.91262974 103.47695608 -352.68359375 102.16796875 C-352.68359375 101.50796875 -352.68359375 100.84796875 -352.68359375 100.16796875 C-350.03620459 98.70734025 -348.78911041 98.16796875 -345.68359375 98.16796875 C-345.68359375 97.50796875 -345.68359375 96.84796875 -345.68359375 96.16796875 C-343.70359375 95.83796875 -341.72359375 95.50796875 -339.68359375 95.16796875 C-339.35359375 94.17796875 -339.02359375 93.18796875 -338.68359375 92.16796875 C-336.32316252 90.81357373 -334.01700256 89.6287689 -331.55859375 88.48046875 C-330.09022614 87.77273831 -328.62279853 87.06305475 -327.15625 86.3515625 C-326.40875488 85.99046387 -325.66125977 85.62936523 -324.89111328 85.25732422 C-321.54508805 83.60614477 -318.27288129 81.82650939 -314.99609375 80.04296875 C-293.01243123 68.16796875 -293.01243123 68.16796875 -286.68359375 68.16796875 C-286.68359375 67.50796875 -286.68359375 66.84796875 -286.68359375 66.16796875 C-284.74891433 65.32810791 -282.81074246 64.49628848 -280.87109375 63.66796875 C-279.79214844 63.20390625 -278.71320313 62.73984375 -277.6015625 62.26171875 C-274.68359375 61.16796875 -274.68359375 61.16796875 -271.68359375 61.16796875 C-271.68359375 60.50796875 -271.68359375 59.84796875 -271.68359375 59.16796875 C-269.79640625 58.58015625 -269.79640625 58.58015625 -267.87109375 57.98046875 C-264.34917935 56.81195761 -261.03459052 55.44629417 -257.68359375 53.85546875 C-250.88812486 50.68297199 -243.83359234 48.31610799 -236.74462891 45.89746094 C-234.61318423 45.14304768 -232.51709822 44.31820929 -230.4140625 43.48828125 C-226.68359375 42.16796875 -226.68359375 42.16796875 -222.68359375 42.16796875 C-222.68359375 41.50796875 -222.68359375 40.84796875 -222.68359375 40.16796875 C-221.64912109 39.89533203 -221.64912109 39.89533203 -220.59375 39.6171875 C-215.38366379 38.22354304 -210.2456612 36.73776625 -205.14453125 34.98828125 C-201.02363181 33.6146481 -196.85874453 32.38368438 -192.69921875 31.1328125 C-189.72864476 30.23242052 -189.72864476 30.23242052 -187.125 29.0859375 C-184.47897311 28.09103139 -182.18275383 27.76790156 -179.37109375 27.54296875 C-178.48808594 27.46820312 -177.60507812 27.3934375 -176.6953125 27.31640625 C-176.03144531 27.26742188 -175.36757813 27.2184375 -174.68359375 27.16796875 C-174.68359375 26.50796875 -174.68359375 25.84796875 -174.68359375 25.16796875 C-166.74108566 23.1379977 -158.8272074 21.12352848 -150.76953125 19.59765625 C-148.90681809 19.21395129 -147.07221502 18.69920403 -145.24609375 18.16796875 C-141.29064106 17.05766624 -137.34498927 16.3694032 -133.30078125 15.66796875 C-130.5331331 15.18403903 -130.5331331 15.18403903 -127.30859375 14.16796875 C-122.92883668 12.9597599 -118.55926305 12.34842883 -114.0625 11.73046875 C-110.95719451 11.21351616 -107.96967559 10.47822727 -104.92358398 9.69433594 C-89.67218781 6.11046562 -73.73729004 4.7304533 -58.18359375 2.98046875 C-57.44475952 2.89597473 -56.70592529 2.81148071 -55.94470215 2.72442627 C-37.29500508 0.60667421 -18.76237448 0.00673722 0 0 Z " fill="#FDF3F3" transform="translate(722.68359375,-0.16796875)"/>
<path d="M0 0 C1.33289546 0.22851696 2.67315835 0.41498831 4.015625 0.578125 C5.25868408 0.73788818 5.25868408 0.73788818 6.52685547 0.90087891 C7.42549316 1.01608887 8.32413086 1.13129883 9.25 1.25 C18.1726189 2.44744807 26.8747844 4.18298865 35.62597656 6.28613281 C39.32239541 7.17332853 42.92745318 7.98972381 46.6953125 8.5234375 C50.27357601 9.03945186 53.53206252 9.97782831 57 11 C58.17812256 11.34643555 59.35624512 11.69287109 60.57006836 12.04980469 C63.96415266 13.06005088 67.35686773 14.07461688 70.74829102 15.09375 C72.19101077 15.52622805 73.6343584 15.95661784 75.07836914 16.38476562 C85.56852227 19.49652727 95.79195767 23.06474024 106 27 C107.97845039 27.7311079 109.95748179 28.46064884 111.9375 29.1875 C132.85212469 37.28932863 153.61318083 46.69102215 173 58 C173.61343262 58.35328369 174.22686523 58.70656738 174.85888672 59.07055664 C195.56654973 70.99889803 215.40562475 84.14995825 234.23828125 98.87109375 C236.55539346 100.65726936 238.89950891 102.34799213 241.3125 104 C242.199375 104.66 243.08625 105.32 244 106 C244 106.66 244 107.32 244 108 C246.475 108.99 246.475 108.99 249 110 C249 110.66 249 111.32 249 112 C249.58555664 112.26337158 250.17111328 112.52674316 250.77441406 112.7980957 C253.09856286 114.05322783 254.70607738 115.40685954 256.609375 117.23046875 C257.28226563 117.86919922 257.95515625 118.50792969 258.6484375 119.16601562 C259.34195313 119.83310547 260.03546875 120.50019531 260.75 121.1875 C264.79620169 125.05293033 268.83998859 128.89462488 273.07421875 132.5546875 C276.89396797 135.86760158 280.50234414 139.34883088 284.0625 142.9375 C284.67391846 143.55157715 285.28533691 144.1656543 285.9152832 144.79833984 C289.47847735 148.39915156 292.93564336 152.04805656 296.203125 155.921875 C297.72226743 157.67879625 299.27379632 159.38178145 300.859375 161.078125 C301.61988159 161.89385986 301.61988159 161.89385986 302.39575195 162.72607422 C303.40868423 163.80942253 304.42534753 164.88929662 305.44604492 165.96533203 C309 169.7788771 309 169.7788771 309 172 C309.66 172 310.32 172 311 172 C312.296875 173.47753906 312.296875 173.47753906 313.75 175.515625 C314.28238281 176.24974609 314.81476562 176.98386719 315.36328125 177.74023438 C315.90339844 178.48595703 316.44351563 179.23167969 317 180 C317.97341087 181.27005719 318.95243598 182.5358346 319.9375 183.796875 C332.10147358 199.47497328 344.34019296 215.62875465 354 233 C354.55558594 233.95777344 355.11117187 234.91554688 355.68359375 235.90234375 C372.89888126 265.69360967 388.23948698 296.23763679 399 329 C399.60714844 330.84078125 399.60714844 330.84078125 400.2265625 332.71875 C406.82879951 353.3347675 412.67672009 374.2734722 416.625 395.5625 C417.05284737 397.85581282 417.48245022 400.14879903 417.9140625 402.44140625 C418.0992041 403.43857666 418.2843457 404.43574707 418.47509766 405.46313477 C418.9702525 408.10650439 418.9702525 408.10650439 420 411 C420.068991 413.06145107 420.08467727 415.12501401 420.0625 417.1875 C420.05347656 418.27417969 420.04445313 419.36085938 420.03515625 420.48046875 C420.01775391 421.72763672 420.01775391 421.72763672 420 423 C420.66 423 421.32 423 422 423 C426.98223026 466.64751722 428.95512111 514.46609378 422 558 C421.67 558.33 421.34 558.66 421 559 C420.8319193 560.73362693 420.7124321 562.47200606 420.61328125 564.2109375 C420.08312859 571.17601115 418.72036839 577.82004328 417.1875 584.625 C416.91542725 585.85629639 416.64335449 587.08759277 416.36303711 588.35620117 C415.82198747 590.80270742 415.27821011 593.24861233 414.73144531 595.69384766 C414.11888377 598.46264221 413.52963338 601.23367991 412.9609375 604.01171875 C410.60687173 615.38360905 407.28051528 626.3976661 403.79443359 637.46972656 C403.11929336 639.62005027 402.45492402 641.77290826 401.80078125 643.9296875 C398.70860334 654.12287477 395.470076 664.14137252 391.27734375 673.94140625 C389.97530638 677.05912877 388.79650828 680.20616612 387.625 683.375 C385.39777875 689.21711928 382.72685082 694.72717744 379.87109375 700.28515625 C378.57129468 702.82971846 377.34317714 705.39520134 376.16015625 707.99609375 C371.44471069 718.36300509 366.00506842 728.12891837 360.20849609 737.92773438 C358.63518757 740.62556119 357.15447897 743.36815763 355.6875 746.125 C353.56537566 750.05664113 351.26243164 753.77190212 348.73828125 757.45703125 C347.01930522 759.97175799 345.34619547 762.51421524 343.67456055 765.06054688 C335.29202195 777.77910949 326.53400009 790.2834396 316.70703125 801.93359375 C314.8650754 804.09160008 314.8650754 804.09160008 313 807 C312.34 807 311.68 807 311 807 C311 807.99 311 808.98 311 810 C310.34 810 309.68 810 309 810 C308.60494263 810.87833496 308.60494263 810.87833496 308.2019043 811.77441406 C306.94677217 814.09856286 305.59314046 815.70607738 303.76953125 817.609375 C303.13080078 818.28226563 302.49207031 818.95515625 301.83398438 819.6484375 C301.16689453 820.34195313 300.49980469 821.03546875 299.8125 821.75 C295.94706967 825.79620169 292.10537512 829.83998859 288.4453125 834.07421875 C285.13239842 837.89396797 281.65116912 841.50234414 278.0625 845.0625 C277.44842285 845.67391846 276.8343457 846.28533691 276.20166016 846.9152832 C272.60084844 850.47847735 268.95194344 853.93564336 265.078125 857.203125 C263.32120375 858.72226743 261.61821855 860.27379632 259.921875 861.859375 C259.10614014 862.61988159 259.10614014 862.61988159 258.27392578 863.39575195 C257.19057747 864.40868423 256.11070338 865.42534753 255.03466797 866.44604492 C251.2211229 870 251.2211229 870 249 870 C249 870.66 249 871.32 249 872 C247.52246094 873.296875 247.52246094 873.296875 245.484375 874.75 C244.75025391 875.28238281 244.01613281 875.81476562 243.25976562 876.36328125 C242.51404297 876.90339844 241.76832031 877.44351563 241 878 C239.72994281 878.97341087 238.4641654 879.95243598 237.203125 880.9375 C207.98156062 903.61576637 176.69308916 924.04746024 142.84716797 939.16455078 C139.81145843 940.53756136 136.81744116 941.99865195 133.8125 943.4375 C114.41021177 952.5015502 94.37522764 959.50586749 74 966 C73.12939941 966.27859863 72.25879883 966.55719727 71.36181641 966.84423828 C55.12451249 971.98773207 38.42233442 975.35213268 21.75 978.75 C20.72712891 978.96076172 19.70425781 979.17152344 18.65039062 979.38867188 C13.09320393 980.50010921 7.62254024 981.33172243 1.96972656 981.76269531 C-0.07424972 981.89670002 -0.07424972 981.89670002 -2 983 C-35.46466625 988.43971565 -108.91480942 997.54259529 -140 982 C-142.03801745 981.72181364 -144.08083266 981.47865406 -146.125 981.25 C-154.26833646 980.2602022 -162.24329167 978.57756781 -170.25830078 976.85253906 C-175.09428639 975.81173168 -179.92359262 974.82032699 -184.796875 973.96875 C-188.96462977 973.2223639 -192.94989854 972.2538176 -197 971 C-198.75249987 970.4710085 -200.50511516 969.94239933 -202.2578125 969.4140625 C-207.26315412 967.89003282 -212.26673123 966.36021406 -217.27050781 964.83105469 C-219.56131513 964.13356738 -221.85387413 963.44280886 -224.1484375 962.7578125 C-232.90928084 960.12343303 -232.90928084 960.12343303 -236.6875 958.4375 C-239.32698264 957.29206414 -241.68504938 956.50191118 -244.4375 955.75 C-250.01017404 954.15290082 -255.19979341 951.81750076 -260.46655273 949.42480469 C-263.62373989 947.99790605 -266.62363358 946.76832494 -270 946 C-270 945.34 -270 944.68 -270 944 C-270.72348633 943.88011719 -271.44697266 943.76023437 -272.19238281 943.63671875 C-275.02974988 942.99325325 -277.30394309 942.07008408 -279.921875 940.8125 C-280.85644531 940.36567871 -281.79101562 939.91885742 -282.75390625 939.45849609 C-283.74261719 938.97719238 -284.73132813 938.49588867 -285.75 938 C-286.77480469 937.5045166 -287.79960938 937.0090332 -288.85546875 936.49853516 C-307.80727136 927.27993829 -325.70680443 916.93483578 -343.30004883 905.34082031 C-344.1123999 904.80682617 -344.92475098 904.27283203 -345.76171875 903.72265625 C-346.843927 903.00734741 -346.843927 903.00734741 -347.94799805 902.27758789 C-349.91738636 901.05143572 -351.90833164 900.00036313 -354 899 C-354 898.34 -354 897.68 -354 897 C-354.65742188 896.79632812 -355.31484375 896.59265625 -355.9921875 896.3828125 C-360.17716406 894.45881029 -363.52029451 891.71622414 -367.125 888.875 C-368.63577142 887.69800177 -370.1474918 886.52222059 -371.66015625 885.34765625 C-372.39637207 884.77547363 -373.13258789 884.20329102 -373.89111328 883.61376953 C-377.57816411 880.79235185 -381.37729407 878.13492373 -385.19140625 875.48828125 C-385.78824219 874.99714844 -386.38507813 874.50601563 -387 874 C-387 873.34 -387 872.68 -387 872 C-387.86818359 871.60941406 -387.86818359 871.60941406 -388.75390625 871.2109375 C-391.15195442 869.91807675 -392.92218697 868.45274925 -394.9375 866.625 C-397.24910517 864.54671573 -399.53433156 862.58811942 -402 860.6875 C-402.66 860.130625 -403.32 859.57375 -404 859 C-404 858.34 -404 857.68 -404 857 C-404.89643219 856.59056152 -404.89643219 856.59056152 -405.81097412 856.17285156 C-407.9384059 855.03300132 -409.32540472 853.92785057 -411.02441406 852.234375 C-411.58469299 851.68040039 -412.14497192 851.12642578 -412.722229 850.55566406 C-413.31404968 849.95979492 -413.90587036 849.36392578 -414.515625 848.75 C-415.4393692 847.82912598 -415.4393692 847.82912598 -416.3817749 846.88964844 C-417.67852646 845.59425517 -418.97276657 844.29634356 -420.26464844 842.99609375 C-422.24975202 841.00024932 -424.24533591 839.01533274 -426.2421875 837.03125 C-427.50064211 835.77147445 -428.75847654 834.51107899 -430.015625 833.25 C-430.6155426 832.65413086 -431.21546021 832.05826172 -431.83355713 831.44433594 C-436 827.22993247 -436 827.22993247 -436 825 C-436.66 825 -437.32 825 -438 825 C-439.51740976 823.30096977 -440.965128 821.53927277 -442.375 819.75 C-444.59229313 816.94686688 -446.7305752 814.26298803 -449.2890625 811.765625 C-451 810 -451 810 -451 808 C-451.66 808 -452.32 808 -453 808 C-454.89663297 805.68324608 -456.67832492 803.35595058 -458.4375 800.9375 C-458.96375977 800.22319824 -459.49001953 799.50889648 -460.03222656 798.77294922 C-461.1352258 797.27451653 -462.23559435 795.77414429 -463.33349609 794.27197266 C-464.95549194 792.06067858 -466.59390144 789.86265093 -468.23828125 787.66796875 C-469.24245 786.32050809 -470.24636665 784.9728595 -471.25 783.625 C-471.72751709 782.98941162 -472.20503418 782.35382324 -472.69702148 781.69897461 C-476 777.22793667 -476 777.22793667 -476 775 C-476.66 775 -477.32 775 -478 775 C-478.82951172 773.515 -478.82951172 773.515 -479.67578125 772 C-482.02283354 767.89343157 -484.59060356 763.95151979 -487.1875 760 C-492.32418917 752.11105373 -497.26519879 744.13614453 -502 736 C-502.57717773 735.01821777 -502.57717773 735.01821777 -503.16601562 734.01660156 C-510.50154087 721.47657519 -516.58748909 708.43502125 -522.54931641 695.19604492 C-524.55398779 690.77949273 -526.61623381 686.39016102 -528.68212891 682.00195312 C-530.42617582 678.02922233 -531.75769354 673.97233491 -533.06640625 669.83984375 C-533.9581598 667.12727125 -534.97191894 664.51297154 -536.0625 661.875 C-537.69891855 657.87983753 -539.01631242 653.8678151 -540.19140625 649.71484375 C-541.57968907 645.05370094 -543.17223872 640.45871621 -544.72387695 635.84985352 C-548.67836952 624.01920452 -551.77899073 612.14016969 -554.37353516 599.94140625 C-555.03326546 596.84381048 -555.70981376 593.75013449 -556.38671875 590.65625 C-556.84221921 588.54189762 -557.29667157 586.42731914 -557.75 584.3125 C-557.96084229 583.34546143 -558.17168457 582.37842285 -558.38891602 581.38208008 C-559.60014116 575.62292552 -560.36835777 569.98005714 -560.76269531 564.10620117 C-560.77660078 562.01556841 -560.77660078 562.01556841 -562 561 C-562.70635626 556.08764657 -563.0979799 551.13027232 -563.5390625 546.1875 C-563.60686543 545.43104187 -563.67466835 544.67458374 -563.74452591 543.89520264 C-565.15623858 527.7715955 -565.46485113 511.71830037 -565.39111328 495.54101562 C-565.37402312 491.75717181 -565.38420785 487.97396206 -565.40145493 484.19013977 C-565.46358455 467.99416414 -564.98541222 451.94901626 -563.5390625 435.8125 C-563.47227673 435.06409851 -563.40549095 434.31569702 -563.33668137 433.5446167 C-562.21183009 421.21183009 -562.21183009 421.21183009 -561 420 C-560.74029034 417.87851626 -560.5198722 415.75223744 -560.3125 413.625 C-559.30310842 404.40109919 -557.21017199 395.4365685 -555.12036133 386.40673828 C-553.85749442 380.93892352 -552.78421996 375.55893971 -552 370 C-550.45344934 364.05500253 -548.50099219 358.22312106 -546.625 352.375 C-544.65627636 346.21747026 -542.69624603 340.05909055 -540.8125 333.875 C-538.23762313 325.48199711 -535.67895655 317.18114319 -531.99609375 309.19921875 C-530.94822689 306.8856931 -529.99729086 304.54887932 -529.0625 302.1875 C-528.72605469 301.341875 -528.38960937 300.49625 -528.04296875 299.625 C-527.35622504 297.89656639 -526.6712817 296.1674162 -525.98828125 294.4375 C-518.82571628 276.74470794 -510.00747246 260.03017792 -500.45068359 243.53076172 C-499.07878681 241.137446 -497.74790835 238.72575221 -496.42578125 236.3046875 C-494.14742252 232.18564152 -491.64038575 228.26956898 -489 224.375 C-488.38125 223.45074219 -488.38125 223.45074219 -487.75 222.5078125 C-485.64000708 219.36919802 -483.48131148 216.2801892 -481.25 213.2265625 C-478.90585097 210.18964332 -478.90585097 210.18964332 -478 207 C-477.34 207 -476.68 207 -476 207 C-475.78472656 206.33097656 -475.56945312 205.66195312 -475.34765625 204.97265625 C-473.55750253 201.02394037 -471.07777157 197.85749851 -468.4375 194.4375 C-467.35519698 193.01973868 -466.27316859 191.60176766 -465.19140625 190.18359375 C-464.65402832 189.48218262 -464.11665039 188.78077148 -463.56298828 188.05810547 C-462.11282498 186.14856523 -460.68901647 184.22325103 -459.27734375 182.28515625 C-458.8687915 181.72707275 -458.46023926 181.16898926 -458.03930664 180.59399414 C-456.93747502 179.08553144 -455.83970749 177.57410263 -454.7421875 176.0625 C-454.16726563 175.381875 -453.59234375 174.70125 -453 174 C-452.34 174 -451.68 174 -451 174 C-450.773125 173.443125 -450.54625 172.88625 -450.3125 172.3125 C-448.64697681 169.37800676 -446.37778824 167.37778824 -444 165 C-443.67 164.01 -443.34 163.02 -443 162 C-442.34 162 -441.68 162 -441 162 C-441 161.34 -441 160.68 -441 160 C-439.625 158.375 -439.625 158.375 -438 157 C-437.34 157 -436.68 157 -436 157 C-435.72704102 156.40237854 -435.45408203 155.80475708 -435.17285156 155.18902588 C-434.03300132 153.0615941 -432.92785057 151.67459528 -431.234375 149.97558594 C-430.68040039 149.41530701 -430.12642578 148.85502808 -429.55566406 148.277771 C-428.66186035 147.39003998 -428.66186035 147.39003998 -427.75 146.484375 C-427.13608398 145.86854553 -426.52216797 145.25271606 -425.88964844 144.6182251 C-424.59425517 143.32147354 -423.29634356 142.02723343 -421.99609375 140.73535156 C-420.00024932 138.75024798 -418.01533274 136.75466409 -416.03125 134.7578125 C-414.77147445 133.49935789 -413.51107899 132.24152346 -412.25 130.984375 C-411.65413086 130.3844574 -411.05826172 129.78453979 -410.44433594 129.16644287 C-406.22993247 125 -406.22993247 125 -404 125 C-404 124.34 -404 123.68 -404 123 C-402.30096977 121.48259024 -400.53927277 120.034872 -398.75 118.625 C-395.94686688 116.40770687 -393.26298803 114.2694248 -390.765625 111.7109375 C-389 110 -389 110 -387 110 C-387 109.34 -387 108.68 -387 108 C-384.68324608 106.10336703 -382.35595058 104.32167508 -379.9375 102.5625 C-378.86604736 101.77311035 -378.86604736 101.77311035 -377.77294922 100.96777344 C-376.27451653 99.8647742 -374.77414429 98.76440565 -373.27197266 97.66650391 C-371.06067858 96.04450806 -368.86265093 94.40609856 -366.66796875 92.76171875 C-365.32050809 91.75755 -363.9728595 90.75363335 -362.625 89.75 C-361.98941162 89.27248291 -361.35382324 88.79496582 -360.69897461 88.30297852 C-356.22793667 85 -356.22793667 85 -354 85 C-354 84.34 -354 83.68 -354 83 C-353.01 82.44699219 -352.02 81.89398438 -351 81.32421875 C-346.89339989 78.97714836 -342.95180798 76.40899643 -339 73.8125 C-324.64463982 64.48291323 -309.9970235 56.20508757 -294.74707031 48.40722656 C-292.21921904 47.11229813 -289.6987377 45.80412663 -287.1796875 44.4921875 C-285.7660344 43.76482876 -284.35200065 43.03820913 -282.9375 42.3125 C-282.31367432 41.98564209 -281.68984863 41.65878418 -281.04711914 41.32202148 C-277.37717958 39.46351022 -274.08586927 38.46642343 -270 38 C-270 37.34 -270 36.68 -270 36 C-269.01902344 35.63648438 -268.03804687 35.27296875 -267.02734375 34.8984375 C-265.66389204 34.39108286 -264.30062523 33.88323117 -262.9375 33.375 C-261.85408325 32.97112061 -261.85408325 32.97112061 -260.7487793 32.55908203 C-256.52950965 30.97691337 -252.33912975 29.34102307 -248.16870117 27.63452148 C-241.92159068 25.07832515 -235.67458802 22.8489797 -229.1953125 20.95703125 C-226.69493538 20.20814079 -224.2270804 19.41721769 -221.75390625 18.5859375 C-216.79518405 16.9217587 -211.81318257 15.34563886 -206.8125 13.8125 C-205.94947266 13.53986328 -205.08644531 13.26722656 -204.19726562 12.98632812 C-199.66735812 11.60344129 -195.79554088 10.64680959 -191 11 C-191 10.34 -191 9.68 -191 9 C-190.1234375 8.84144531 -189.246875 8.68289063 -188.34375 8.51953125 C-181.87161484 7.32902671 -175.41562708 6.10140039 -168.98046875 4.72265625 C-167.42005859 4.38947388 -167.42005859 4.38947388 -165.828125 4.04956055 C-163.78135574 3.6099443 -161.73571059 3.16505102 -159.69140625 2.71411133 C-153.8204049 1.45527079 -148.08693678 0.6293348 -142.09301758 0.23291016 C-140.01393072 0.22211908 -140.01393072 0.22211908 -139 -1 C-105.36929674 -6.8200663 -31.11523098 -15.55761549 0 0 Z " fill="#000000" transform="translate(818,259)"/>
<path d="M0 0 C5.94 0 11.88 0 18 0 C18.33 17.82 18.66 35.64 19 54 C21.31 52.02 23.62 50.04 26 48 C28.328125 46.57421875 28.328125 46.57421875 30.25 45.6875 C30.89453125 45.38199219 31.5390625 45.07648437 32.203125 44.76171875 C41.49994817 40.82067415 55.61972076 41.44646863 64.875 45.125 C74.91743088 50.25304981 81.21564912 57.77414682 85.29296875 68.35546875 C88.39559349 78.0889738 89.18148391 87.15131736 89.1875 97.3125 C89.19974609 98.38951172 89.21199219 99.46652344 89.22460938 100.57617188 C89.25121176 115.21634896 85.83675995 129.54454848 75.625 140.5625 C74.325625 141.7690625 74.325625 141.7690625 73 143 C72.13375 143.845625 71.2675 144.69125 70.375 145.5625 C61.8223409 152.40462728 51.52743484 152.92990428 41 152 C31.98474906 150.51180714 24.0583909 145.8486158 18 139 C17.67 142.63 17.34 146.26 17 150 C11.39 150 5.78 150 0 150 C0 100.5 0 51 0 0 Z " fill="#7D7D7D" transform="translate(789,676)"/>
<path d="M0 0 C19 0 19 0 23.5390625 4.1171875 C24.63740179 5.99744375 25.66325511 7.92134713 26.625 9.875 C27.83583381 12.00284525 29.04948392 14.12908983 30.265625 16.25390625 C30.87212891 17.36652832 31.47863281 18.47915039 32.10351562 19.62548828 C35.241236 25.20859475 38.8233742 30.48708249 42.375 35.8125 C43.81203356 38.00511085 45.24691764 40.1991319 46.6796875 42.39453125 C47.39350586 43.48588379 48.10732422 44.57723633 48.84277344 45.70166016 C51.68978466 50.0546617 54.53620938 54.40804656 57.38256836 58.76147461 C58.78697553 60.90945813 60.19143462 63.05740771 61.59594727 65.20532227 C64.90484088 70.26564419 68.21337562 75.32619971 71.5206604 80.38757324 C73.07662323 82.76872669 74.63278647 85.14974913 76.18896484 87.53076172 C77.2824217 89.20397406 78.37558994 90.87737499 79.46875 92.55078125 C80.13519531 93.57042969 80.80164063 94.59007812 81.48828125 95.640625 C82.07134033 96.53297852 82.65439941 97.42533203 83.25512695 98.34472656 C85.15679073 101.23859745 87.07919778 104.11879666 89 107 C89.33 71.69 89.66 36.38 90 0 C96.27 0 102.54 0 109 0 C109 46.86 109 93.72 109 142 C90 142 90 142 85.4375 137.5 C84.2436978 135.35938916 83.10205812 133.18925704 82 131 C80.83457252 129.06799156 79.62563123 127.16808898 78.41113281 125.26660156 C77.10654179 123.22105832 75.83092975 121.15948184 74.55859375 119.09375 C72.17889805 115.2588447 69.70590918 111.4948841 67.1875 107.75 C63.34508386 102.03225425 59.56133325 96.27956904 55.8125 90.5 C55.26859619 89.66154541 54.72469238 88.82309082 54.16430664 87.95922852 C53.02925518 86.20933694 51.89424632 84.45941773 50.75927734 82.70947266 C47.72147928 78.03094324 44.67316078 73.35928198 41.625 68.6875 C41.08593018 67.86121094 40.54686035 67.03492188 39.99145508 66.18359375 C39.42966553 65.3225 38.86787598 64.46140625 38.2890625 63.57421875 C31.85812461 53.71696149 25.42933004 43.85830605 19 34 C18.67 69.64 18.34 105.28 18 142 C12.06 142 6.12 142 0 142 C0 95.14 0 48.28 0 0 Z " fill="#7D7D7D" transform="translate(340,684)"/>
<path d="M0 0 C0.94681641 -0.02449219 1.89363281 -0.04898438 2.86914062 -0.07421875 C12.63622461 -0.11455082 19.45935574 3.04737289 26.58984375 9.625 C28.49102658 11.70746921 29.52231976 13.63113151 30.1875 16.375 C30.8475 16.375 31.5075 16.375 32.1875 16.375 C32.44660156 15.78589844 32.70570313 15.19679688 32.97265625 14.58984375 C36.33171114 8.46577905 43.22441199 3.9329039 49.53125 1.2578125 C54.61697887 0.02984805 59.53188139 -0.13477496 64.75 -0.1875 C65.71945557 -0.20224365 66.68891113 -0.2169873 67.68774414 -0.23217773 C75.66832953 -0.11914595 82.08327232 1.94977455 88.9375 6 C100.05306327 17.73309456 100.62441848 31.35890603 100.48046875 46.6328125 C100.47486391 48.38971594 100.47059801 50.14662411 100.46760559 51.90353394 C100.45622665 56.49683898 100.42682043 61.0898532 100.39349365 65.68304443 C100.36264178 70.38240629 100.34906814 75.08181576 100.33398438 79.78125 C100.30194307 88.9793141 100.24923308 98.17708721 100.1875 107.375 C94.2475 107.375 88.3075 107.375 82.1875 107.375 C82.1781543 105.12510254 82.16880859 102.87520508 82.15917969 100.55712891 C82.1252937 93.09312624 82.06968071 85.62939668 82.00359726 78.16561317 C81.96421981 73.64376069 81.9319839 69.12210011 81.91650391 64.60009766 C81.90127281 60.22967875 81.86671416 55.85978776 81.81919098 51.48960495 C81.80444334 49.82884709 81.79646281 48.16801383 81.79561615 46.5071907 C81.97781028 33.37020146 81.97781028 33.37020146 77.1875 21.375 C74.89790614 19.47156056 72.97500489 18.5622706 70.1875 17.375 C69.5275 17.045 68.8675 16.715 68.1875 16.375 C55.75479687 15.18282834 55.75479687 15.18282834 44.6953125 19.8828125 C44.19773437 20.37523437 43.70015625 20.86765625 43.1875 21.375 C42.68992187 21.86742187 42.19234375 22.35984375 41.6796875 22.8671875 C36.92474834 28.11120611 35.89041566 32.94303077 35.86865234 39.82739258 C35.85860672 40.5596405 35.8485611 41.29188843 35.83821106 42.04632568 C35.80744929 44.45405327 35.79036367 46.86167002 35.7734375 49.26953125 C35.75472019 50.94391326 35.73514636 52.61828589 35.7147522 54.29264832 C35.66348439 58.69020046 35.62383009 63.08778316 35.58660889 67.48547363 C35.54653564 71.97672045 35.49545846 76.46784072 35.4453125 80.95898438 C35.34861651 89.76424274 35.26520905 98.56955358 35.1875 107.375 C29.2475 107.375 23.3075 107.375 17.1875 107.375 C17.1781543 105.15539551 17.16880859 102.93579102 17.15917969 100.64892578 C17.12529087 93.28470579 17.06967636 85.92076251 17.00359726 78.5567646 C16.96422291 74.09544611 16.93198551 69.63432202 16.91650391 65.17285156 C16.90127072 60.860784 16.86670851 56.54925128 16.81919098 52.23742294 C16.80444546 50.5989944 16.79646294 48.96048946 16.79561615 47.32199478 C16.90764072 32.46364596 16.90764072 32.46364596 9.8125 19.875 C1.94054833 15.3767419 -6.97805098 15.14258965 -15.734375 16.9921875 C-20.94321955 18.77582215 -24.24368799 21.07575474 -27.50360107 25.53820801 C-30.45036763 31.92476972 -29.65695672 39.52957791 -29.6171875 46.4375 C-29.62844812 48.19728406 -29.64233333 49.9570531 -29.65872192 51.71679688 C-29.69465691 56.32662197 -29.6951466 60.93578245 -29.68804932 65.54571533 C-29.68713432 70.25846129 -29.72002459 74.97096095 -29.75 79.68359375 C-29.80376573 88.91421103 -29.81692814 98.14422701 -29.8125 107.375 C-35.7525 107.375 -41.6925 107.375 -47.8125 107.375 C-47.8125 72.725 -47.8125 38.075 -47.8125 2.375 C-42.2025 2.375 -36.5925 2.375 -30.8125 2.375 C-30.4825 5.675 -30.1525 8.975 -29.8125 12.375 C-29.1525 11.653125 -28.4925 10.93125 -27.8125 10.1875 C-19.7619006 2.15970683 -11.08007037 0.01490258 0 0 Z " fill="#7D7D7D" transform="translate(653.8125,718.625)"/>
<path d="M0 0 C10.3456117 6.93893835 15.07778272 17.20601517 18 29 C18.495 30.98 18.495 30.98 19 33 C19 39.93 19 46.86 19 54 C-4.43 54 -27.86 54 -52 54 C-48.33092642 72.34229405 -48.33092642 72.34229405 -36 85 C-27.83956649 89.15333892 -18.96762651 89.20153554 -10.08984375 87.4140625 C-3.11939689 85.0058891 1.85004046 80.12804482 7 75 C8.46300982 75.93018526 9.92025579 76.86944027 11.375 77.8125 C12.18710937 78.33457031 12.99921875 78.85664062 13.8359375 79.39453125 C16 81 16 81 18 84 C9.02551837 94.7475555 0.38226549 102.47826352 -14 104 C-29.5703788 105.15218419 -42.45753384 102.34175255 -54.96484375 92.4453125 C-64.23721606 83.96423673 -69.50760003 70.85371395 -70.1262207 58.47412109 C-70.64404665 39.84225049 -69.32849246 23.73668042 -57 8.75 C-42.65198966 -6.38018467 -18.28871273 -10.72728501 0 0 Z " fill="#7C7C7C" transform="translate(975,724)"/>
<path d="M0 0 C5.94 0 11.88 0 18 0 C18.0093457 2.24989746 18.01869141 4.49979492 18.02832031 6.81787109 C18.0622063 14.28187376 18.11781929 21.74560332 18.18390274 29.20938683 C18.22328019 33.73123931 18.2555161 38.25289989 18.27099609 42.77490234 C18.28622719 47.14532125 18.32078584 51.51521224 18.36830902 55.88539505 C18.38305666 57.54615291 18.39103719 59.20698617 18.39188385 60.8678093 C18.23521531 75.86110429 18.23521531 75.86110429 25.4375 88.5 C32.45932648 92.61033745 39.17118283 92.95974024 47.125 91.3125 C53.75544291 89.40658321 59.12871478 85.72950212 63 80 C64.49978491 77.00043018 64.17908704 73.90465985 64.20532227 70.61279297 C64.21522186 69.85172241 64.22512146 69.09065186 64.23532104 68.30651855 C64.26696678 65.78510676 64.29170557 63.26367612 64.31640625 60.7421875 C64.33697313 58.99626164 64.35796953 57.25034078 64.37937927 55.50442505 C64.43462746 50.90460258 64.4840246 46.30473497 64.53222656 41.70483398 C64.58242155 37.01281711 64.63811805 32.32086595 64.69335938 27.62890625 C64.80097456 18.41932483 64.9019038 9.20968773 65 0 C70.94 0 76.88 0 83 0 C83 34.98 83 69.96 83 106 C77.39 106 71.78 106 66 106 C65.505 101.545 65.505 101.545 65 97 C64.443125 97.47050781 63.88625 97.94101562 63.3125 98.42578125 C52.10339454 107.57104803 40.39096824 109.30694969 26 108 C15.8148513 105.12932675 9.50894359 100.59851532 4.2890625 91.45703125 C0.41694283 84.07653649 -0.15664173 76.44948771 -0.11352539 68.22875977 C-0.11367142 67.48646622 -0.11381744 66.74417267 -0.1139679 65.97938538 C-0.11327674 63.55002824 -0.10552203 61.12074983 -0.09765625 58.69140625 C-0.09578923 56.99747255 -0.09436667 55.30353831 -0.09336853 53.60960388 C-0.08956568 49.16926562 -0.07975462 44.7289605 -0.06866455 40.28863525 C-0.05840227 35.75037077 -0.05386062 31.21210089 -0.04882812 26.67382812 C-0.0381302 17.78253524 -0.02055165 8.89127557 0 0 Z " fill="#7D7D7D" transform="translate(487,720)"/>
<path d="M0 0 C0.79277344 0.4125 1.58554688 0.825 2.40234375 1.25 C9.48237199 5.39670539 14.75452787 11.28499836 16.875 19.3125 C17.36385309 22.19130155 17.69607698 25.09584668 18 28 C12.06 28 6.12 28 0 28 C-0.515625 26.63875 -1.03125 25.2775 -1.5625 23.875 C-4.3262728 17.69543757 -8.03968466 14.2524411 -14.25 11.625 C-22.96225884 10.17295686 -30.34168444 10.20163631 -38 15 C-40.93833167 17.36499866 -41.82419075 18.87921603 -42.40625 22.58984375 C-42.64787594 27.09012683 -42.58269228 30.05563665 -40.1875 33.9375 C-33.93617236 37.98247671 -27.17885702 39.78359124 -19.96704102 41.34521484 C-13.13050791 42.82794848 -6.74127218 44.64771224 -0.3125 47.4375 C0.33420654 47.71376221 0.98091309 47.99002441 1.6472168 48.2746582 C7.57652586 50.96641079 12.47063554 54.42482986 15.8125 60.125 C16.21082031 60.78757812 16.60914063 61.45015625 17.01953125 62.1328125 C20.08561092 67.97180088 19.80844202 74.67396408 18.28125 80.95703125 C14.83555633 91.11349122 9.38043147 96.15200942 0 101 C-12.59808277 106.82491999 -29.04268491 106.95015936 -42.0625 102.328125 C-52.7991988 97.4737665 -59.94577766 90.47547634 -64.3359375 79.625 C-65 77 -65 77 -65 70 C-59.06 70 -53.12 70 -47 70 C-46.505 72.2584375 -46.505 72.2584375 -46 74.5625 C-44.24767271 80.41743241 -41.17063176 83.81250021 -36 87 C-27.44639285 90.56201746 -16.42242421 90.41911605 -7.8046875 86.98828125 C-3.80334466 84.79706969 -1.43105038 82.29315115 0 78 C0.37797235 72.89737327 -0.11469675 70.2077339 -3 66 C-3 65.34 -3 64.68 -3 64 C-4.66625886 63.33231471 -6.3330124 62.66586376 -8 62 C-9.13695312 61.53980469 -9.13695312 61.53980469 -10.296875 61.0703125 C-15.94259285 58.89473333 -21.54430291 57.36055816 -27.4375 56.0625 C-40.82195066 53.02641055 -52.09069277 48.69015769 -60.125 36.875 C-61.98966294 28.61720697 -62.7311202 20.01447683 -58.4375 12.4375 C-46.10046615 -4.93212342 -18.67004242 -10.39028448 0 0 Z " fill="#7C7C7C" transform="translate(1160,723)"/>
<path d="M0 0 C6.54286534 4.6331733 10.41273868 10.68126437 12.375 18.4375 C15.09629176 35.72345189 15.63006758 53.23781682 5.375 68.0625 C0.81827888 73.58158207 -4.66349913 75.91900081 -11.79296875 76.6640625 C-19.86330862 76.96965196 -26.2637164 74.38516502 -32.625 69.4375 C-36.53974418 65.31671665 -39.85033673 61.65155275 -39.94726562 55.81762695 C-39.96648071 54.88267899 -39.9856958 53.94773102 -40.00549316 52.98445129 C-40.01399292 51.97509018 -40.02249268 50.96572906 -40.03125 49.92578125 C-40.04265015 48.88358932 -40.05405029 47.8413974 -40.0657959 46.7676239 C-40.08469828 44.55939799 -40.09776484 42.35111564 -40.10546875 40.14282227 C-40.12482877 36.77974521 -40.18684056 33.4191409 -40.25 30.05664062 C-40.26306605 27.90886865 -40.27356465 25.76107922 -40.28125 23.61328125 C-40.3059436 22.61404129 -40.33063721 21.61480133 -40.3560791 20.58528137 C-40.31127856 13.48916854 -38.53381168 9.54497026 -33.625 4.4375 C-25.0297387 -3.93157021 -10.51666132 -5.88807086 0 0 Z " fill="#000000" transform="translate(846.625,736.5625)"/>
<path d="M0 0 C0.68900391 -0.00386719 1.37800781 -0.00773438 2.08789062 -0.01171875 C7.18580665 -0.00169335 7.18580665 -0.00169335 8.3125 1.125 C8.38569621 3.82154854 8.40492537 6.49191458 8.375 9.1875 C8.37048828 9.94611328 8.36597656 10.70472656 8.36132812 11.48632812 C8.3495068 13.36591871 8.33157078 15.24546899 8.3125 17.125 C7.20132812 17.13917969 6.09015625 17.15335938 4.9453125 17.16796875 C-7.69492028 17.40387826 -7.69492028 17.40387826 -18.6875 23.125 C-22.86284952 27.79686858 -24.42547537 31.66030469 -24.34692383 37.98803711 C-24.36264938 39.11610779 -24.36264938 39.11610779 -24.37869263 40.26696777 C-24.40727541 42.72918817 -24.40117148 45.18998832 -24.39453125 47.65234375 C-24.40765657 49.3687159 -24.42296335 51.08507263 -24.44035339 52.80140686 C-24.48011911 57.30099678 -24.49038837 61.80018186 -24.49438477 66.29992676 C-24.50373216 70.89864314 -24.54115573 75.49712323 -24.57617188 80.09570312 C-24.64066216 89.10551359 -24.6713751 98.11497303 -24.6875 107.125 C-30.6275 107.125 -36.5675 107.125 -42.6875 107.125 C-42.6875 72.475 -42.6875 37.825 -42.6875 2.125 C-37.0775 2.125 -31.4675 2.125 -25.6875 2.125 C-25.3575 5.425 -25.0275 8.725 -24.6875 12.125 C-23.841875 11.0525 -22.99625 9.98 -22.125 8.875 C-15.93302308 1.64370781 -9.24742729 -0.05279216 0 0 Z " fill="#7C7C7C" transform="translate(1066.6875,718.875)"/>
<path d="M0 0 C6.95317431 -0.38898877 13.38113382 1.22821858 18.87109375 5.66015625 C25.72103334 12.9587065 27.046875 20.3677099 27.046875 30.1875 C9.886875 30.1875 -7.273125 30.1875 -24.953125 30.1875 C-23.91041651 20.8031236 -21.7843498 13.0187248 -14.953125 6.1875 C-10.05619571 2.56129287 -6.06774687 0.5825037 0 0 Z " fill="#010101" transform="translate(948.953125,732.8125)"/>
<path d="M0 0 C0.66 0 1.32 0 2 0 C0.65772899 2.98435256 -0.82658283 5.07879551 -3.1328125 7.39160156 C-3.76687012 8.0319635 -4.40092773 8.67232544 -5.05419922 9.33209229 C-5.73756348 10.01140808 -6.42092773 10.69072388 -7.125 11.390625 C-7.8277002 12.09523865 -8.53040039 12.79985229 -9.25439453 13.52581787 C-10.73810104 15.01088353 -12.22432892 16.49343381 -13.71289062 17.97363281 C-15.99843591 20.24844325 -18.27309017 22.5337536 -20.546875 24.8203125 C-21.98894219 26.26105868 -23.43162935 27.70118465 -24.875 29.140625 C-25.55836426 29.82803772 -26.24172852 30.51545044 -26.94580078 31.22369385 C-27.89688721 32.16532379 -27.89688721 32.16532379 -28.8671875 33.12597656 C-29.70419189 33.96059418 -29.70419189 33.96059418 -30.55810547 34.81207275 C-32 36 -32 36 -34 36 C-34 35.34 -34 34.68 -34 34 C-32.55361726 32.82271172 -31.10513917 31.64787395 -29.64453125 30.48828125 C-27.93882464 28.94463702 -26.77621438 27.40808599 -25.5 25.5 C-23.1370433 21.99343285 -20.28661893 19.67037788 -17 17 C-16.195625 16.01 -15.39125 15.02 -14.5625 14 C-12.08774444 11.1027252 -9.824662 9.38599398 -6.70703125 7.30078125 C-4.89385235 5.91911403 -3.60212296 4.46934072 -2.1875 2.6875 C-1.465625 1.800625 -0.74375 0.91375 0 0 Z " fill="#9C9595" transform="translate(235,201)"/>
</svg>
